<?xml version="1.0" encoding="utf-8"?>
<!-- Generator: Adobe Illustrator 17.0.0, SVG Export Plug-In . SVG Version: 6.00 Build 0)  -->
<!DOCTYPE svg PUBLIC "-//W3C//DTD SVG 1.1//EN" "http://www.w3.org/Graphics/SVG/1.1/DTD/svg11.dtd">
<svg version="1.1" id="Layer_1" xmlns="http://www.w3.org/2000/svg" xmlns:xlink="http://www.w3.org/1999/xlink" x="0px" y="0px"
	 width="2000px" height="2000px" viewBox="0 0 2000 2000" enable-background="new 0 0 2000 2000" xml:space="preserve">
<g>
	<path fill-rule="evenodd" clip-rule="evenodd" fill="#FFFFFF" d="M1150.429,229.153c119.061-2.832,255.309,126.242,201.488,249.462
		c-10.708,24.508-103.385,150.988-130.486,84.434c-8.397-38.836,78.654-91.11,88.271-138.163
		c14.198-69.502-110.488-147.427-166.951-157.354c-40.617-7.142-78.074,18.524-107.461,5.757v-1.919v-5.756
		C1073.663,253.46,1112.054,241.309,1150.429,229.153"/>
	<path fill-rule="evenodd" clip-rule="evenodd" fill="#FFFFFF" d="M1067.916,298.237c16.692,4.711,36.044,24.085,46.052,36.458
		v7.676c-16.192,12.831-25.125,32.018-44.135,42.214c-30.229-27.01-31.906-42.06-63.326-17.267
		c-4.102,9.181-10.707,14.435-19.19,19.189c-14.709-12.791-29.425-25.587-44.136-38.379c6.824-16.795,28.892-39.197,44.136-47.973
		C1037.843,329.887,1020.677,347.061,1067.916,298.237"/>
	<path fill="#FBB040" d="M428.873,1456.335c0.111,0.216,0.238-0.034,0.382-0.785c-4.412,4.162-8.938,7.994-13.568,11.493
		c-9.177,13.408-17.769,28.489-25.435,46.284c-7.671,17.807-14.354,34.745-19.798,51.503c-6.458,19.85-11.987,40.142-16.339,61.419
		c0.748-11.131,0.862-19.691,0.29-25.801c-0.567-6.105-1.315-10.75-2.266-14.011c-0.951-3.249-1.947-5.28-3.001-6.104
		c-1.052-0.809-1.822-1.215-2.288-1.237c-22.109-6.96-40.375-13.515-54.407-15.04c-14.045-1.592-23.738-3.684-28.724-3.759
		c-5.742,0.136-10.785,2.167-15.117,6.368c-4.333,4.232-8.036,9.401-11.067,15.711c-3.038,6.322-5.584,13.795-7.613,22.572
		c-2.027,8.77-3.637,17.569-4.811,26.371c15.546,46.813,32.866,93.188,51.958,139.026c-0.097,0.316-0.195,0.631-0.294,0.945
		c22.152,37.209,45.43,72.225,69.641,105.01c-4.012-0.699-8.906-0.404-14.776,0.637c-5.871,1.054-12.196,2.587-19.014,4.484
		c-6.823,1.906-13.84,4.275-21.077,7.031c-7.242,2.776-13.972,5.697-20.14,8.951c-6.753,4.11-13.764,10.717-21.074,19.825
		c-7.307,9.117-14.507,18.133-21.581,27.083c-7.075,8.966-13.811,16.214-20.164,21.798c-6.353,5.61-12.053,6.09-16.992,1.586
		c-1.78-1.084-3.7-3.074-5.738-5.982c-1.136-1.738-2.039-2.895-2.708-3.488c4.658,1.672,10.402-2.162,17.142-11.688
		c6.751-9.49,12.366-22.977,16.995-39.983c4.638-17.002,6.94-36.401,7.195-57.735c0.257-21.357-3.668-42.396-11.606-63.822
		c-11.626-31.412-22.535-63.021-32.722-94.803c-2.482-5.191-4.996-8.392-7.579-9.623c-2.589-1.222-5.035-1.716-7.348-1.474
		c-2.563,0.74-5.138,2.701-7.729,5.924c1.931-5.381,3.373-11.059,4.338-17.038c0.717-5.49,1.096-11.752,1.176-18.779
		c0.076-7.004-0.773-14.855-2.495-23.574c-7.792-27.057-15.07-54.227-21.832-81.492c-1.69-6.813-4.149-14.617-7.348-23.502
		s-6.969-17.35-11.312-25.574c-4.353-8.191-9.3-15.775-14.867-22.899c-5.572-7.106-11.492-12.394-17.803-15.87
		c-28.07-32.008-46.966-70.61-56.333-107.332c0.155-0.11,0.308-0.222,0.462-0.332c1.948,1.955,3.748,3.973,5.399,6.082
		c1.643,2.126,3.449,4.101,5.411,5.918c6.175,5.268,12.37,9.087,18.547,11.516c6.18,2.446,11.869,3.754,17.07,4.075
		c5.199,0.315,9.624,0.054,13.296-0.695c3.662-0.74,5.791-1.418,6.396-1.958c5.247-1.581,10.458-4.484,15.647-8.59
		c5.179-4.086,9.781-9.615,13.824-16.394c4.05-6.778,7.504-15.06,10.426-24.709c2.919-9.639,5.066-21.119,6.531-34.345
		c13.274,90.764,32.804,180.828,58.588,269.531c2.256,5.089,4.645,7.819,7.116,8.191c2.476,0.379,4.742,0.026,6.798-1.033
		c2.304-1.518,4.47-3.531,6.498-6.007c-1.491,4.239-2.841,8.926-4.037,14.071c-0.947,4.684-1.751,9.836-2.392,15.487
		c-0.642,5.648-0.413,11.511,0.7,17.537c2.114,6.644,4.264,13.279,6.447,19.906c-0.003-6.211,0.231-14.229,0.756-23.924
		c0.531-9.683,1.614-18.97,3.225-27.904c1.397-7.054,2.531-16.531,3.513-28.272c0.978-11.715,1.899-22.802,2.724-33.297
		c0.717-12.186,1.485-25.044,2.342-38.476c1.461-12.641,2.339-26.868,2.762-42.486c0.567-13.626,0.678-29.65,0.548-47.81
		c-0.133-18.154-0.917-38.632-2.055-61.292c-0.074-0.366-0.223-1.472-0.417-3.312c-0.206-1.835-0.94-3.276-2.226-4.352
		c-1.279-1.071-3.294-1.35-6.036-0.896c-2.743,0.475-6.602,2.44-11.58,5.866c9.699-11.826,18.941-25.155,27.832-39.473
		c7.549-12.066,15.284-26.072,23.346-41.429c8.053-15.343,14.675-31.208,20.022-47.294c1.684-6.71,3.416-13.276,5.197-19.696
		c0.019,0.142,0.04,0.282,0.059,0.424c0.044,0.283,0.137,0.368,0.292,0.248c0.147-0.117,0.249-0.035,0.291,0.239
		c3.464,7.378,4.783,17.927,4.244,32.738c-0.53,14.82-1.503,30.003-2.903,45.742c-1.848,18.794-4.253,39.83-6.988,63.729
		c-4.349,29.487-9.299,60.289-15.003,92.28c-5.708,32.007-10.182,61.253-13.995,86.404c11.33-4.561,23.528-8.957,36.443-14.021
		c12.902-5.04,26.044-9.715,39.296-14.65c14.374-1.865,27.514-4.733,39.525-7.886c5.014-1.191,10.173-2.469,15.448-3.932
		c5.278-1.458,10.255-2.714,14.951-3.663c4.698-0.951,8.965-1.128,12.87-0.383c3.899,0.761,7.255,2.32,10.139,4.916
		C428.538,1455.678,428.706,1456.008,428.873,1456.335"/>
	<path fill="#FBB040" d="M818.801,527.825c-14.155,49.22-24.889,99.238-32.175,149.692c-0.739,5.157-0.71,12.589,0.228,22.234
		c0.94,9.651,2.24,19.195,3.887,28.615c1.646,9.417,3.251,17.754,4.734,25.029c1.486,7.274,2.248,11.434,2.172,12.526
		c-7.614-19.16-14.253-34.858-20.378-46.765c-6.123-11.912-11.347-21.215-15.864-27.737c-4.518-6.511-8.049-10.967-10.681-13.273
		c-2.63-2.3-3.909-3.656-3.858-4.037c0.053-0.375,0.794-0.565,2.228-0.557c1.427,0.011,3.041-0.628,4.837-1.922
		c1.8-1.282,3.656-3.91,5.606-7.861c1.951-3.95,3.571-10.053,4.977-18.325c10.183-59.94,25.146-119.183,44.847-177.142
		c-8.001-0.685-17.297-0.16-27.883,1.71c-10.597,1.878-21.363,6.2-32.216,13.12c-10.854,6.925-21.275,17.337-30.996,31.342
		c-9.715,14.006-17.473,32.702-22.631,55.861c-2.488,11.179-4.823,22.387-6.996,33.622c-1.633,8.427-3.243,17.692-4.778,27.779
		c-1.504,8.863-1.89,15.624-1.252,20.254c0.632,4.638,1.641,7.869,2.985,9.699c1.34,1.843,2.7,2.952,4.077,3.354
		c1.371,0.405,2.03,0.807,1.976,1.2c-0.056,0.4-1.678,1.395-4.849,2.993c-3.173,1.609-7.823,5.165-13.902,10.767
		c-6.079,5.622-13.568,14.113-22.279,25.722c-8.704,11.615-18.359,27.733-28.428,48.712c-0.094-1.276,1.132-5.976,3.794-14.042
		c2.656-8.059,5.748-17.215,9.341-27.416c3.588-10.204,7.092-20.458,10.518-30.776c3.429-10.315,5.619-18.308,6.452-24.091
		c8.168-56.56,20.199-112.633,36.07-167.808c1.161-5.329,1.818-10.052,1.951-14.185c0.129-4.124-0.061-7.59-0.584-10.403
		c-0.526-2.808-1.273-5.909-2.239-9.325c2.28-0.162,4.381-0.94,6.309-2.317c1.929-1.376,4.011-3.686,6.283-6.929
		c2.27-3.239,4.621-7.982,7.126-14.233c2.846-8.346,6.211-17.958,10.206-28.817c3.996-10.856,8.069-21.47,12.209-31.846
		c4.137-10.37,8.067-19.938,11.728-28.708c3.653-8.77,6.493-15.255,8.398-19.507c3.67-9.48,6.118-17.802,7.278-25.011
		c1.159-7.21,1.464-13.215,0.87-18.043c-0.602-4.813-1.724-8.734-3.393-11.733c-1.672-3.001-3.45-4.98-5.35-5.933
		c0.479,0.236,2.77,0.784,6.9,1.645c4.119,0.876,9.84,0.131,17.163-2.125c7.316-2.247,16.319-7.155,27.124-14.53
		c10.797-7.364,23.219-19.316,37.73-35.548c-46.426,78.61-83.475,161.288-111.042,246.428c4.462-4.591,10.077-8.563,16.803-11.868
		c6.728-3.295,14.053-5.362,21.946-6.205c7.894-0.835,15.974-0.161,24.248,1.95c8.266,2.116,16.265,6.036,24.049,11.638
		c24.485-69.161,55.755-136.412,93.751-200.747c-6.68,19.684-9.629,35.766-9.412,48.081c0.213,12.326,1.773,21.891,4.434,28.749
		c2.656,6.868,5.65,11.488,8.878,13.938c3.22,2.454,5.079,3.789,5.557,4.026c-2.065-1.03-4.889-1.404-8.495-1.119
		c-3.603,0.294-7.636,1.841-12.07,4.696c-4.438,2.851-9.122,7.18-13.992,13.023c-4.871,5.838-9.491,13.614-13.723,23.286
		c-12.62,28.857-23.976,58.141-34.064,87.77c-1.771,5.737-2.602,10.393-2.553,13.949c0.049,3.557,0.466,6.335,1.22,8.334
		c0.756,2.002,2.036,3.677,3.839,5.019c-2.807,1.841-5.135,3.642-6.972,5.412c-1.846,1.771-3.881,4.171-6.079,7.212
		C822.182,519.376,820.312,523.208,818.801,527.825"/>
	<path fill-rule="evenodd" clip-rule="evenodd" fill="#FFFFFF" d="M12.13,1688.251c12.853,0.646,25.709,1.289,38.563,1.93
		c-0.643,1.285-1.285,2.574-1.927,3.855c-26.949,7.205-38.797,28.192-61.704,32.778v-5.782
		C-6.665,1705.351,1.062,1698.55,12.13,1688.251"/>
	<path fill="#FBB040" d="M1945.85,1203.805c-1.936,5.041-3.595,9.354-4.963,13.26c-1.371,3.915-2.684,7.774-3.933,11.655
		c-1.254,3.897-2.545,8.078-3.916,12.591c-1.36,4.522-3.024,9.681-5.03,15.458c0.135,1.318,0.575,1.918,1.331,1.734
		c0.759-0.182,1.613-0.376,2.587-0.686c0.971-0.293,1.967-0.496,2.99-0.639c1.026-0.137,1.879,0.583,2.577,2.184
		c0.757,1.713,1.328,3.586,1.683,5.803c0.35,2.22,0.526,6.017,0.516,11.428c-0.014,5.424-0.156,12.786-0.457,22.148
		c-0.298,9.368-0.74,22.083-1.321,38.146c-0.136,3.738-0.433,8.432-0.884,14.114c-0.453,5.697-1.118,11.939-2.014,18.799
		c-0.889,6.87-2.064,14.093-3.545,21.703c-1.476,7.613-3.287,14.954-5.42,21.85c-11.943,38.386-25.553,76.503-40.816,114.294
		c-2.096,4.498-3.557,6.487-4.316,5.945c-0.766-0.526-1.265-1.615-1.524-3.216c-0.19-2.124-0.242-4.775-0.158-7.937
		c-1.338,6.512-2.8,12.925-4.387,19.238c-1.329,5.361-3.018,11.621-5.082,18.801c-2.064,7.203-4.223,13.717-6.461,19.51
		c-21.121,47.648-44.908,94.898-71.375,141.63c-22.187,31.133-45.42,59.418-69.322,84.854c2.07,0.508,3.865,2.84,5.521,6.736
		c1.647,3.912,3.341,8.276,5.129,12.95c1.783,4.687,3.393,10.105,4.86,16.199c1.474,6.09,2.693,12.435,3.648,19.125
		c1.227,6.238,1.484,15.558,0.836,27.894c-0.66,12.36-1.269,24.319-1.854,35.977c-0.601,11.669-0.712,21.565-0.394,29.743
		c0.318,8.209,2.226,10.684,5.598,7.627c1.919-1.727,3.434-3.406,4.548-5.01c1.096-1.57,2.049-2.881,2.84-3.916
		c-2.461,0.688-3.594-1.783-3.373-7.338c0.215-5.537,0.963-11.963,2.217-19.175c1.25-7.203,2.746-14.406,4.457-21.58
		c1.695-7.142,2.85-12.125,3.449-14.92c4.885-21.273,11.188-42.558,18.512-63.423c7.324-20.864,16.518-43.225,27.15-67.157
		c16.141-31.138,31.266-62.529,45.367-94.144c2.424-4.695,4.188-7.352,5.36-7.994c1.162-0.621,2.055-0.551,2.664,0.242
		c0.531,1.355,0.797,3.693,0.783,7.06c0.037-0.271,0.071-0.542,0.109-0.814c0.147-1.09,0.395-2.422,0.764-4.031
		c0.795-3.725,2.242-9.946,4.313-18.592c2.056-8.611,5.092-18.666,8.986-30.105c18.881-46.54,35.582-93.497,50.092-140.79
		c1.928-5.648,3.471-9.35,4.685-11.17c1.213-1.809,2.1-2.102,2.688-0.894c0.589,1.231,0.994,3.229,1.215,6.036
		c0.219,2.816,0.283,5.678,0.174,8.666c-0.542,14.953-1.143,27.932-1.844,39.024c-0.701,11.118-1.572,21.611-2.651,31.559
		c-1.08,9.963-2.414,19.999-4.045,30.148c-1.628,10.158-3.644,21.561-6.089,34.272c-2.475,13.123-5.225,26.059-8.27,38.736
		c-3.053,12.686-6.115,24.729-9.162,36.043c-3.054,11.319-5.823,21.19-8.244,29.5c-2.426,8.34-4.24,15.014-5.373,19.996
		c5.678-16.357,10.306-30.107,14.074-41.318c3.764-11.195,7.454-22.736,11.064-34.613c3.612-11.852,7.463-25.145,11.481-39.822
		c4.011-14.653,8.918-33.575,14.393-56.479c5.281-22.199,10.099-44.29,14.466-66.087c4.362-21.782,7.793-40.771,10.522-57.114
		c3.28-19.249,6.006-36.96,8.304-53.202c-2.693,14.702-5.937,28.994-9.681,42.108c-3.742,13.142-7.006,20.42-9.493,21.585
		c-2.203,0.915-3.735,0.269-4.64-1.394c-0.9-1.659-1.431-4.422-1.602-8.091c-0.162-3.678-0.126-8.296,0.129-13.802
		c0.244-5.503,0.396-11.733,0.457-18.74c0.071-8.338,0.547-16.761,1.379-25.098c0.823-8.324,1.7-15.986,2.616-23.037
		c1.037-7.834,2.195-15.471,3.468-22.939c-1.326,3.178-2.498,4.911-3.493,5.166c-0.878,0.139-1.673-1.233-2.345-4.164
		c-0.675-2.908-0.959-8.823-0.879-17.505c0.006-0.666,0.012-1.333,0.016-1.999c0.055-6.335,0.049-11.554-0.009-15.683
		c-0.053-4.127,0.038-8.844,0.263-14.093c0.227-5.238,0.627-11.606,1.176-18.971c0.543-7.344,1.414-17.327,2.455-29.468
		c1.273-14.693,2.717-27.644,4.326-39.173c1.609-11.524,2.957-19.905,4.223-25.853c-1.307,2.534-2.713,5.43-4.24,8.65
		c-1.278,2.41-2.754,5.623-4.487,9.529C1949.498,1195.254,1947.708,1199.376,1945.85,1203.805"/>
	<path fill="#FBB040" d="M1939.975,585.659c1.647,5.149,3.812,13.27,6.359,24.114c2.553,10.847,4.938,21.644,7.169,32.367
		c2.235,10.714,4.084,20.067,5.622,28.173c1.537,8.087,2.395,12.564,2.67,13.606c-5-35.437-9.931-68.294-13.816-96.336
		c-3.895-28.08-7.254-52.203-9.602-71.166c-2.347-18.977-3.957-33.042-4.619-41.637c-0.66-8.594-1.08-13.146-1.228-13.626
		c-0.151-0.465-0.168,2.051-0.045,7.624c0.125,5.573,0.01,10.867-0.328,16.029c-0.342,5.15-1.151,8.241-2.453,9.364
		c-1.295,1.13-3.463-2.798-6.657-12.063c-17.309-50.142-37.066-99.941-59.265-149.303c-2.618-5.802-5.114-12.556-7.555-20.351
		c-2.438-7.799-4.539-15.148-6.309-22.045c-2.154-8.515-3.994-16.532-5.492-24.007c0.678,5.734,0.901,10.321,0.703,13.829
		c-0.197,2.715-1.017,3.85-2.437,3.472c-1.43-0.393-4.014-4.445-7.881-12.261c-41.133-83.144-89.303-164.909-144.522-244.824
		c10.4,21.494,19.944,42.955,28.729,64.368c8.793,21.413,16.866,42.337,24.328,62.879c7.458,20.52,14.215,40.26,20.365,59.32
		c6.159,19.059,11.743,37.004,16.827,53.947c11.934,39.936,22.316,78.157,31.755,115.528c-2.42-9.899-5.273-22.699-8.5-38.268
		c-3.216-15.561-5.623-29.578-7.109-41.818c-1.492-12.25-1.602-20.953-0.342-25.984c1.25-5.061,4.887-2.413,10.52,7.477
		c16.291,28.592,31.595,57.401,45.918,86.402c2.936,6.357,5.542,13.316,7.82,20.813c2.273,7.474,4.123,14.114,5.578,19.93
		c1.451,5.8,2.943,12.681,4.461,20.596c-0.08-4.873,0.045-8.339,0.342-10.416c0.301-2.09,0.9-3.53,1.803-4.26
		c0.904-0.746,2.396,0.979,4.419,5.094C1901.479,476.158,1922.405,530.691,1939.975,585.659"/>
	<path fill="#FBB040" d="M1145.535,936.928c0.467,1.372,1.231,2.489,2.283,3.35c1.052,0.861,2.109,1.514,3.175,1.966
		c1.063,0.454,2.412,0.791,4.058,1.023c-1.48,0.094-2.872,0.352-4.188,0.782c-1.314,0.318-2.581,0.814-3.803,1.485
		c-1.224,0.671-2.244,1.583-3.05,2.728c-0.8,3.19-1.849,6.451-3.153,9.84c-1.312,3.385-2.914,6.788-4.832,10.253
		c-1.921,3.466-4.074,6.932-6.469,10.437c-2.403,3.509-5.014,6.861-7.853,10.065c-3.609,4.709-7.391,9.688-11.379,15
		c-3.346,4.533-7.006,9.695-11.008,15.655c-4.006,5.965-7.885,11.772-11.613,17.292c-2.21,3.419-5.117,7.166-8.749,11.346
		c-3.63,4.185-7.218,8.433-10.758,12.72c-4.238,4.931-8.696,10.137-13.386,15.671c1.673-2.725,2.918-4.754,3.746-6.166
		c0.832-1.414,1.53-2.763,2.096-4.058c0.567-1.296,0.966-2.644,1.202-4.053c0.232-1.411,0.577-3.435,1.027-6.048
		c-0.237-2.17-1.233-3.855-2.963-5.126c-1.576-1.003-4.019-1.677-7.266-2.109c-3.248-0.426-7.902,0.044-13.893,1.415
		c-7.927,2.408-15.085,2.687-21.409-0.005c-6.331-2.68-11.595-7.974-15.954-16.246c-4.358-8.261-7.778-19.204-10.522-32.73
		c-2.748-13.518-4.633-28.877-5.881-45.327c-0.669-3.38-1.532-6.177-2.571-8.385c-1.041-2.2-2.125-3.972-3.235-5.294
		c-1.256-1.313-2.579-2.335-3.963-3.058c1.797-0.931,3.203-2.254,4.238-3.967c1.03-1.71,1.943-4.124,2.737-7.212
		c0.794-3.081,1.139-7.423,0.996-13.096c0.007,0.316,0.015,0.631,0.024,0.946c-0.448-18.59,0.615-37.192,3.469-53.691
		c2.857-16.52,7.101-29.141,13.326-37.434c6.214-8.33,14.259-11.517,24.355-10.647c10.078,0.856,21.628,6.7,34.084,15.167
		c12.628,8.598,24.652,18.76,35.593,29.328c10.95,10.59,20.182,20.287,27.793,29.561c7.619,9.273,13.416,17.658,17.619,25.901
		c4.198,8.232,6.203,15.402,6.083,22.382C1145.538,936.702,1145.537,936.815,1145.535,936.928 M1007.507,955.812
		c1.175,13.406,3.035,25.362,5.781,35.39c2.739,10.051,6.283,17.747,10.806,23.099c4.517,5.368,9.857,8.122,16.07,8.721
		c6.2,0.611,13.174-1.237,20.819-4.757c7.639-3.527,14.788-8.2,21.296-13.579c6.515-5.388,12.235-11.107,17.137-17.14
		c4.908-6.029,8.923-12.144,12.105-18.508c3.182-6.364,5.446-12.769,6.857-19.497c0.309-3.42,0.628-6.82,0.965-10.2v-0.196
		c0.044-7.826-1.266-15.251-3.996-22.848c-2.73-7.594-6.588-14.874-11.665-22.181c-5.077-7.299-11.344-14.399-18.808-21.438
		c-7.461-7.022-15.71-13.296-24.531-18.214c-8.822-4.912-16.805-7.719-23.756-7.306c-6.966,0.406-12.653,3.577-17.165,10.053
		c-4.523,6.456-7.743,16.006-9.957,28.512c-2.21,12.491-3.161,27.262-3.091,43.278c-0.004-0.271-0.007-0.544-0.011-0.816
		C1006.85,937.459,1007.231,946.668,1007.507,955.812 M1071.297,941.523c-3.814,4.422-7.615,9.179-11.424,14.312
		c-3.758-4.597-7.503-9.55-11.252-14.896c3.725-5.243,7.448-10.09,11.197-14.582
		C1063.652,931.788,1067.471,936.831,1071.297,941.523"/>
	<path fill="#FBB040" d="M1069.066,1034.967c-0.073,2.495,0.447,5.316,1.595,8.361c1.15,3.042,2.446,5.848,3.902,8.403
		c1.457,2.549,2.823,4.673,4.087,6.422c1.263,1.739,1.909,2.823,1.898,3.323c-8.878-2.477-16.838-4.047-24.254-3.906
		c-7.42,0.139-13.767,0.743-19.263,2.265c-5.5,1.523-9.769,3.214-12.92,5.253c-3.149,2.042-4.707,2.966-4.685,2.723
		c0.022-0.237,1.31-1.521,3.867-3.786c2.549-2.252,5.385-5.104,8.487-8.445c3.101-3.341,5.957-7.095,8.54-11.226
		c2.585-4.133,3.991-8.377,4.23-12.953c1.31-24.761,2.057-49.522,2.239-74.283c0.022-2.91-0.454-5.319-1.419-7.29
		c-0.962-1.965-2.038-3.493-3.227-4.567c-1.49-1.287-3.049-2.179-4.672-2.653c1.631-0.413,3.179-1.26,4.663-2.499
		c1.183-1.031,2.256-2.638,3.212-4.778c0.957-2.146,1.422-5.161,1.376-9.114c-0.486-42.031-2.6-84.062-6.336-126.093
		c2.791,7.485,5.752,14.278,8.938,20.37c3.178,6.095,6.42,11.559,9.756,16.448c3.328,4.887,6.674,9.145,10.066,12.839
		c3.381,3.695,6.657,6.916,9.825,9.724c7.508,6.558,15.185,11.527,23.155,15.308c-2.164-0.906-5.121-1.799-8.851-2.676
		c-3.73-0.867-7.356-1.182-10.855-0.807c-3.501,0.373-6.511,1.648-9.018,3.915c-2.515,2.258-3.68,5.992-3.587,10.976
		c0.278,14.421,0.455,28.841,0.526,43.262c0.165,2.867,0.788,5.142,1.864,6.784c1.074,1.642,2.15,2.863,3.224,3.674
		c1.076,0.81,2.533,1.403,4.382,1.778c-1.847,1.132-3.306,2.226-4.378,3.257c-1.078,1.033-2.151,2.389-3.22,4.087
		c-1.068,1.703-1.689,3.733-1.846,6.055C1070.279,981.735,1069.845,1008.352,1069.066,1034.967"/>
	<path fill="#FBB040" d="M1547.066,521.218c-1.025,1.298-1.741,2.915-2.145,4.848c-0.244,1.88-0.226,4.441,0.027,7.683
		c0.254,3.251,1.219,7.674,2.846,13.287c15.051,41.1,25.774,80.313,32.95,116.962c2.968,15.499,5.405,31.183,7.29,47.025
		c1.887,15.851,2.812,30.78,2.902,44.727c0.074,13.951-0.791,26.32-2.472,37.067c-1.679,10.754-4.391,18.983-7.955,24.723
		c0.039-9.78-0.14-19.669-0.547-29.646c-0.407-9.988-1.172-19.119-2.222-27.383c-1.054-8.26-2.491-15.344-4.231-21.214
		c-1.747-5.872-3.923-9.786-6.482-11.75c-7.314-7.614-14.959-18.556-23.224-32.641c-8.268-14.093-16.824-29.464-25.845-46.062
		c-9.018-16.602-18.408-33.619-28.263-51.036c-9.853-17.409-19.751-33.387-29.517-48.005c-9.77-14.606-19.186-27.109-28.029-37.625
		c-8.846-10.504-16.665-17.325-23.24-20.627c33.118,71.813,58.511,146.522,76.012,222.866
		c10.938,36.606,20.061,73.842,27.315,111.568c-1.841-4.772-4.227-10.124-7.195-16.043c-2.961-5.911-6.251-11.847-9.863-17.772
		c-3.61-5.936-7.459-11.881-11.544-17.825c-4.089-5.935-8.053-11.385-11.876-16.334c-4.238-5.242-8.877-9.703-13.877-13.383
		c-4.994-3.669-9.919-7.027-14.747-10.084c-4.831-3.047-9.281-6.136-13.358-9.276c-4.077-3.136-7.336-7.166-9.805-12.1
		c-0.514-0.612-0.961-1.511-1.342-2.718c-0.388-1.19-0.795-2.295-1.225-3.294c-0.517-1.339-0.954-2.344-1.297-2.998
		c2.42,3.821,4.774,6.389,7.094,7.672c2.317,1.294,4.482,1.978,6.504,2.049c2.018,0.075,3.766-0.244,5.231-0.971
		c1.466-0.719,2.543-1.17,3.229-1.335c4.48-1.814,7.251-6.25,8.222-13.325c0.966-7.075,0.344-17.798-2.191-32.102
		c-7.008-24.982-14.897-49.751-23.661-74.258c-1.834-4.084-3.707-7.259-5.581-9.535c-1.877-2.272-3.559-4.116-5.041-5.544
		c-1.815-1.295-3.431-2.068-4.851-2.32c0.891-1.128,1.595-2.776,2.087-4.957c0.162-2.042,0.16-4.626-0.013-7.755
		c-0.179-3.121-1.203-7.526-3.112-13.188c-10.301-25.182-21.55-50.042-33.735-74.526c-9.457-19.146-18.713-34.045-27.186-44.786
		c-8.481-10.744-16.701-19.52-24.51-26.395c-7.8-6.87-15.464-12.983-22.943-18.371c-7.476-5.376-15.473-12.318-24.115-20.765
		c5.873,2.731,12.551,4.656,20.051,5.793c7.494,1.145,16.584,3.573,27.234,7.426c10.646,3.867,23.159,9.989,37.407,18.648
		c14.237,8.669,30.926,22.043,49.465,40.688c16.161,16.354,32.349,35.379,48.178,57.193c15.829,21.827,30.017,43.295,42.71,64.194
		c12.69,20.903,23.39,39.706,32.468,56.1c9.064,16.41,15.731,27.075,20.484,31.664c-18.501-67.79-42.911-134.178-73.128-198.37
		c-8.743-18.553-16.817-30.626-23.54-36.375c-6.743-5.739-12.452-7.79-17.055-6.28c-0.632,0.33-1.621,0.626-2.988,0.89
		c-1.356,0.27-2.605,1.037-3.731,2.317c-1.126,1.279-1.958,3.208-2.517,5.761c-0.555,2.571-0.35,6.299,0.584,11.212
		c-0.21-0.787-0.596-1.935-1.175-3.44c-0.577-1.5-1.294-3.837-2.157-7.005c-1.703-5.896-2.063-11.05-1.042-15.502
		c1.014-4.443,2.283-9.056,3.787-13.843c1.507-4.779,3.003-9.823,4.475-15.147c1.473-5.309,1.855-11.822,1.052-19.535
		c-1.42-14.061-3.465-28.609-6.184-43.624c-2.718-15.003-6.375-28.063-10.756-39.05c20.611,35.19,39.305,71.073,56.105,107.5
		c22.682,42.113,42.819,85.301,60.385,129.336c2.034,4.144,3.979,7.303,5.873,9.478c1.893,2.188,3.549,3.903,4.976,5.146
		C1544.087,520.109,1545.611,520.881,1547.066,521.218"/>
	<path d="M577.269,40.916c6.072,0,22.861,1.429,27.507,1.429c11.432,0,25.722-1.429,31.797-1.429c5.358,0,6.787,1.43,6.787,2.144
		c0,2.144-2.858,3.215-7.503,3.93c-8.217,1.072-12.503,5.715-12.503,10.36c0,4.644,1.427,8.931,3.929,16.433
		c6.431,19.292,52.158,138.614,60.732,157.55c0.358,1.071,1.43,1.785,1.787,0.713c5.717-12.861,50.373-127.539,56.446-144.687
		c3.93-10.717,7.146-22.15,7.146-28.223c0-8.217-6.789-10.36-17.863-13.219c-3.573-0.713-6.073-1.785-6.073-3.215
		c0-1.072,1.428-2.143,6.788-2.143c7.502,0,22.505,1.787,30.008,1.787c8.217,0,17.505-1.43,22.866-1.43
		c4.643,0,6.072,0.714,6.072,1.43c0,1.428-1.071,2.858-6.787,4.286c-12.504,3.573-17.15,7.502-29.654,35.725
		c-6.787,15.363-27.506,67.522-61.447,150.047c-8.217,20.72-13.218,34.653-14.29,38.94c-0.356,2.144-1.428,4.287-2.5,4.287
		c-2.143,0-2.501-2.858-3.931-7.502c-11.43-33.938-63.947-169.338-78.953-204.706c-3.928-9.289-10.001-15.361-20.361-16.791
		c-4.289-0.715-6.789-2.143-6.789-3.572C570.48,41.63,574.052,40.916,577.269,40.916"/>
	<path d="M1032.042,157.737c0,57.875-39.298,93.601-66.805,105.748c-14.29,6.43-30.367,10.717-46.088,10.717
		c-63.59,0-116.462-56.803-116.462-122.181c0-35.725,11.79-67.163,46.084-93.242c18.221-14.291,46.088-22.865,68.951-22.865
		C978.097,35.914,1032.042,91.288,1032.042,157.737 M854.488,68.067c-20.006,23.221-26.794,56.445-26.794,84.312
		c0,25.365,10.718,54.659,26.078,75.38c24.294,32.51,51.446,39.655,71.809,39.655c13.933,0,26.437-3.929,38.584-12.861
		c19.649-14.648,43.228-47.873,43.228-96.458c0-30.367-12.148-63.948-33.582-88.241c-13.933-15.72-33.582-28.581-63.234-28.581
		C890.571,41.273,866.634,54.134,854.488,68.067"/>
	<path d="M1072.044,40.916c10.002,0,16.792,1.429,27.865,1.429c10.004,0,20.007-1.429,27.866-1.429c2.501,0,5.001,0.714,5.001,1.43
		c0,1.428-1.427,2.858-5.358,3.215c-13.933,2.501-15.362,7.144-16.076,22.15c-1.071,18.934-0.716,60.376-0.716,83.597
		c0,52.516,1.073,83.596,1.787,93.6c1.072,13.575,2.859,15.362,13.576,18.219c5,1.073,6.074,2.144,6.074,3.573
		c0,1.786-2.501,2.144-6.788,2.144c-3.215,0-13.576-1.073-22.15-1.073c-15.362,0-26.08,1.787-32.51,1.787
		c-3.216,0-5.36-0.714-5.36-2.501c0-1.072,2.144-2.144,8.217-3.572c13.219-2.858,15.006-8.575,15.364-30.01
		c0.714-20.363,0.356-121.822,0.356-140.757c0-17.505-1.071-25.722-1.787-31.081c-1.071-11.79-4.286-13.218-16.79-16.076
		c-2.5-0.715-3.928-1.429-3.928-2.859C1066.687,41.63,1068.472,40.916,1072.044,40.916"/>
	<path d="M1172.78,41.989c15.364,0,31.082,0,45.73-1.43c9.646-1.072,21.434-2.501,28.58-2.501c27.151,0,53.23,4.644,77.881,19.292
		c29.295,18.219,54.302,48.943,54.302,96.458c0,70.021-48.586,103.603-93.243,115.036c-7.503,2.143-21.078,2.857-31.082,2.857
		c-7.858,0-16.433-0.714-26.435-1.428c-10.719-0.715-20.721-1.787-31.082-1.787c-9.645,0-20.363,0.715-24.292,0.715
		c-3.931,0-6.786-1.072-6.786-2.859c0-1.071,1.784-2.142,6.07-2.5c12.504-1.786,15.721-5.359,16.434-19.292
		c0.715-8.574,1.073-50.015,1.073-69.307c0-63.59-1.073-98.602-1.786-109.677c-0.714-12.145-2.145-16.076-16.435-18.934
		c-3.572-0.357-4.287-1.428-4.287-2.858C1167.422,42.702,1169.566,41.989,1172.78,41.989 M1215.294,47.704
		c-1.071,0.357-3.93,2.858-3.93,9.646c-0.357,12.504-0.714,23.221-0.714,88.956c0,39.297,1.073,59.662,2.143,77.523
		c1.43,20.721,3.216,27.866,12.147,34.654c5,3.93,16.075,7.859,31.438,7.859c18.576,0,32.153-3.215,42.87-8.931
		c22.864-11.789,54.66-37.154,54.66-97.53c0-33.939-10.36-63.591-32.51-84.668c-18.934-17.863-42.157-31.081-79.311-31.081
		C1231.014,44.132,1218.866,46.275,1215.294,47.704"/>
	<path d="M1421.78,268.129c0,21.078-21.077,31.795-28.937,31.796c-1.786,0-3.214-0.358-3.214-1.429c0-0.715,1.428-1.43,3.214-2.143
		c8.575-3.574,17.506-10.362,17.506-23.58c0-5.716-3.573-8.217-7.86-9.288c-5.359-1.429-11.432-2.501-11.432-10.36
		c0-6.073,5.715-10.004,11.432-10.004C1411.779,243.121,1421.78,251.695,1421.78,268.129"/>
	<path d="M150.369,374.857c1.786,0.713,2.501,2.857,2.501,3.929c0,9.646,1.07,19.649,1.43,23.221
		c0.714,5.002-0.717,7.146-1.786,7.146c-1.43,0-2.503-1.429-3.215-5.359c-2.146-9.289-6.076-16.791-12.863-21.078
		c-8.216-6.073-20.007-8.574-29.293-8.574c-16.434,0-42.157,15.719-42.157,46.085c0,21.435,14.647,34.654,26.792,42.871
		c14.649,9.645,26.081,18.219,37.155,26.436c12.861,9.29,32.154,25.365,32.154,54.66c0,38.94-36.798,62.876-72.88,62.876
		c-14.29,0-36.082-3.929-47.157-10.003c-4.645-2.501-5.716-4.644-6.788-10.717c-0.713-6.073-2.858-15.362-3.216-24.293
		c-0.357-2.859,0-6.074,1.787-6.074c1.429,0,2.501,1.788,3.93,6.789c6.429,27.15,29.296,38.225,52.159,38.225
		c29.652,0,48.585-25.007,48.585-48.586c0-26.437-18.219-39.298-44.655-57.16c-24.293-16.434-47.514-36.083-47.514-66.092
		c0-20.72,8.217-35.011,22.505-46.085c9.29-7.504,25.366-14.291,45.014-14.291C127.86,368.783,145.011,373.428,150.369,374.857"/>
	<path d="M197.161,374.142c8.217,0,16.078,1.071,27.51,1.071c16.077,0,67.878-0.714,82.168-0.714
		c13.218,0,17.506-0.715,21.433-0.715c1.432,0,2.503,1.786,3.217,6.074c0.358,4.287,0.716,14.647,2.5,22.864
		c0.358,2.144,0,5.358-1.428,5.358c-1.072,0-1.786-1.071-3.572-5.001c-6.788-16.076-12.147-19.649-18.577-20.72
		c-9.647-1.787-63.592-1.787-71.451-1.072c-2.858,0.357-4.287,1.072-4.287,13.218v83.24c0,5.359,1.071,6.43,2.143,6.43h48.587
		c18.22,0,21.078-0.714,23.935-2.501c2.502-1.071,5.717-5.358,9.29-12.504c1.428-2.858,2.5-3.929,3.572-3.929
		c1.071,0,1.787,1.429,1.787,3.93c0,2.144-1.429,11.432-2.145,17.863c-0.714,7.145,0.358,17.148,0.716,19.291
		c1.071,5.359-1.43,7.503-2.146,7.503c-1.426,0-1.784-1.787-4.285-7.86c-1.072-3.215-3.572-8.931-8.574-10.718
		c-7.502-2.143-18.22-2.501-69.664-2.501c-3.216,0-3.216,0.358-3.216,8.217c0,17.863,1.071,66.807,1.071,73.594
		c0,3.93,2.5,12.861,9.645,16.434c6.075,3.215,11.077,3.93,36.798,3.93c34.296,0,38.941-1.072,45.373-6.788
		c3.214-2.858,8.928-11.432,12.502-16.434c3.573-5.001,5.003-6.431,6.432-6.431c1.428,0,1.785,2.144,0.357,6.431
		c-2.859,9.646-5.717,22.15-7.86,26.437c-1.073,2.144-2.503,3.93-4.645,3.93c-37.868,0-78.596-1.429-107.89-1.429
		c-11.789,0-30.366,1.786-34.296,1.786c-4.287,0-6.431-1.072-6.431-2.501c0-1.429,2.5-2.143,6.431-2.858
		c12.861-2.143,19.65-7.145,20.006-22.863c1.428-57.875,1.786-92.53,1.786-166.838c0-21.078-3.93-25.365-16.792-28.222
		c-3.571-0.715-5-1.787-5-3.216C192.161,375.213,194.304,374.142,197.161,374.142"/>
	<path d="M377.571,373.784c5.357,0,15.718-0.356,25.363-0.714c8.217-0.357,28.58-2.5,34.653-2.5c28.58,0,50.374,7.859,63.95,22.863
		c12.503,12.862,18.575,31.081,18.575,46.801c0,33.94-17.147,49.657-30.008,58.232c-12.504,8.931-28.223,10.717-37.154,10.717
		c-5.001,0-9.289-0.714-11.432-1.429c-2.144-0.713-4.288-1.786-4.288-3.215c0-0.714,1.072-1.786,3.931-1.429
		c3.216,0.358,4.286,0.358,7.859,0.358c11.791,0,48.23-9.289,48.23-61.091c0-10.718-2.86-32.51-17.864-47.514
		c-11.432-12.147-23.936-19.292-42.512-19.292c-6.788,0-15.364,1.429-18.221,2.501c-1.43,0.714-3.214,3.573-3.214,6.788
		c0,6.431,0.357,81.453,0.357,119.679c0,38.584,0.714,62.876,1.427,72.88c1.074,13.934,5.36,17.505,16.434,19.292
		c5.361,0.714,7.145,1.785,7.145,3.215c0,1.786-2.5,2.5-5.715,2.5c-10.718,0-17.506-1.786-34.297-1.786
		c-8.931,0-17.862,1.43-21.791,1.43c-3.215,0-6.431-0.358-6.431-2.144c0-1.072,1.071-2.144,6.071-3.215
		c10.72-2.144,14.65-4.644,15.366-16.433c0.355-8.217,0.712-49.301,0.712-105.391c0-29.294-1.787-76.809-2.5-83.954
		c-0.358-6.788-4.644-10.717-14.646-11.788c-2.146-0.359-5.718-1.073-5.718-2.86C371.853,375.214,374.355,373.784,377.571,373.784"
		/>
	<path d="M628.002,372.713c1.428,9.288,5.001,18.22,10.004,30.724c27.507,73.595,42.512,109.319,66.448,165.051
		c9.287,22.149,12.504,25.365,21.793,27.508c3.928,0.715,6.072,2.143,6.072,3.215c0,1.786-3.215,2.501-6.432,2.501
		c-5.713,0-9.644-1.072-28.935-1.072c-9.646,0-24.652,1.43-32.154,1.43c-3.571,0-5.717-1.073-5.717-2.5
		c0-1.431,3.575-2.859,6.789-3.217c16.077-2.143,16.433-9.289,16.433-16.075c0-4.288-12.86-37.155-26.078-71.809
		c-1.072-2.144-3.215-4.287-4.289-4.287c-13.217,1.072-62.161,0.715-70.02,1.072c-1.073,0-3.929,4.645-5.001,7.145
		c-3.216,7.145-13.933,34.297-19.65,53.589c-4.286,14.646-3.928,21.076,0,25.006c2.86,2.859,7.861,4.288,14.648,5.717
		c3.572,0.714,5.358,2.143,5.358,3.215c0,1.786-3.216,2.5-6.787,2.5c-6.788,0-22.149-1.786-35.367-1.786
		c-8.931,0-15.006,1.786-22.509,1.786c-3.93,0-6.072-0.714-6.072-2.5c0-1.787,3.572-2.501,7.144-3.215
		c16.434-3.216,18.579-5.717,32.511-36.083c9.646-20.364,41.798-100.031,63.947-155.047c1.788-4.644,2.144-7.146,2.144-10.361
		c0-1.429,0.715-3.573,1.072-3.929c2.143-2.502,8.575-8.932,10.004-17.863c0.356-1.429,0.714-3.573,2.144-3.573
		C626.572,369.855,627.288,370.57,628.002,372.713 M648.364,489.534c-16.075-45.013-24.65-63.947-30.723-78.595
		c-1.072-2.5-1.786-1.429-2.858,1.072c-10.003,24.293-24.294,63.948-29.295,78.953c-0.356,0-0.714,3.215,1.073,3.215
		c5.715,0.357,15.002,0.357,28.58,0.357c12.147,0,28.936,0,33.223-1.429C648.009,493.107,648.722,490.964,648.364,489.534"/>
	<path d="M872.356,385.931c15.36,11.075,22.147,27.152,22.147,42.871c0,23.936-12.146,34.297-20.363,40.727
		c-6.072,5.358-16.076,9.645-21.793,11.789c-1.428,0.715-0.713,3.215,0.716,6.787c7.143,13.933,30.366,50.374,40.368,63.949
		c11.076,15.004,18.579,23.936,26.08,31.438c11.433,11.432,21.793,14.647,28.223,14.647c2.857,0,4.644,1.072,4.644,2.144
		c0,0.714-1.428,1.787-4.287,2.858c-2.856,1.072-8.572,1.429-13.574,1.429c-21.793,0-36.083-11.789-49.303-28.223
		c-18.219-23.221-48.227-72.522-53.229-78.596c-3.573-3.929-6.788-7.144-11.076-8.217c-3.571-1.071-8.574-1.785-17.863-1.429
		c-1.784,0-3.214,1.429-3.571,2.859c-0.716,3.572-1.072,49.301-0.716,63.591c0.359,16.434,1.787,29.294,2.859,32.509
		c1.428,4.289,3.931,7.86,16.79,10.004c3.931,0.714,5.361,1.428,5.361,2.858c0,1.429-2.86,2.5-7.147,2.5
		c-7.501,0-14.289-1.786-26.435-1.786c-13.219,0-23.579,1.786-30.366,1.786c-3.576,0-6.076-0.714-6.076-2.5
		c0-1.43,2.5-2.144,7.146-3.215c11.076-2.144,15.005-5.358,16.077-20.364c1.072-20.364,1.786-47.158,1.786-98.959
		c0-50.015-1.429-68.949-2.142-80.382c-0.716-10.36-1.43-15.361-16.434-17.861c-3.216-0.716-6.074-1.43-6.074-3.216
		c0-1.072,1.786-2.145,6.43-2.145c5.001,0,13.575,1.43,26.437,1.43c13.218,0,26.437-1.786,38.226-1.786
		C846.633,373.428,860.564,377.357,872.356,385.931 M801.262,381.287c-0.716,0.358-1.787,0.358-2.144,6.075
		c-0.359,7.144-0.359,82.881-0.359,88.597c0,5.359,1.43,6.43,2.503,6.43c2.143,0.358,6.787,0.358,9.646,0.358
		c10.361,0,32.509-2.858,39.654-7.502c10.002-7.146,21.434-21.792,21.434-41.084c0-18.935-5.715-32.511-15.004-41.085
		c-9.646-8.931-22.506-14.29-43.941-14.29C808.406,378.786,803.046,380.216,801.262,381.287"/>
	<path d="M1067.759,372.713c1.429,9.288,5.003,18.22,10.004,30.724c27.508,73.595,42.513,109.319,66.45,165.051
		c9.288,22.149,12.503,25.365,21.793,27.508c3.929,0.715,6.071,2.143,6.071,3.215c0,1.786-3.215,2.501-6.43,2.501
		c-5.716,0-9.645-1.072-28.937-1.072c-9.647,0-24.649,1.43-32.152,1.43c-3.573,0-5.717-1.073-5.717-2.5
		c0-1.431,3.572-2.859,6.788-3.217c16.076-2.143,16.433-9.289,16.433-16.075c0-4.288-12.86-37.155-26.078-71.809
		c-1.072-2.144-3.215-4.287-4.288-4.287c-13.217,1.072-62.162,0.715-70.021,1.072c-1.072,0-3.93,4.645-5.001,7.145
		c-3.216,7.145-13.934,34.297-19.65,53.589c-4.288,14.646-3.929,21.076,0,25.006c2.858,2.859,7.86,4.288,14.647,5.717
		c3.573,0.714,5.359,2.143,5.359,3.215c0,1.786-3.216,2.5-6.789,2.5c-6.787,0-22.147-1.786-35.367-1.786
		c-8.931,0-15.005,1.786-22.506,1.786c-3.931,0-6.074-0.714-6.074-2.5c0-1.787,3.572-2.501,7.145-3.215
		c16.434-3.216,18.58-5.717,32.509-36.083c9.647-20.364,41.8-100.031,63.949-155.047c1.788-4.644,2.144-7.146,2.144-10.361
		c0-1.429,0.714-3.573,1.071-3.929c2.145-2.502,8.575-8.932,10.005-17.863c0.357-1.429,0.712-3.573,2.142-3.573
		C1066.332,369.855,1067.046,370.57,1067.759,372.713 M1088.124,489.534c-16.078-45.013-24.65-63.947-30.724-78.595
		c-1.072-2.5-1.788-1.429-2.859,1.072c-10.003,24.293-24.293,63.948-29.294,78.953c-0.356,0-0.714,3.215,1.07,3.215
		c5.717,0.357,15.006,0.357,28.581,0.357c12.148,0,28.938,0,33.226-1.429C1087.769,493.107,1088.479,490.964,1088.124,489.534"/>
	<path d="M1314.978,374.857c9.645,0,16.432-0.715,22.505-3.929c1.429-1.073,2.501-1.073,2.856-0.359
		c0.358,1.072,0.358,1.786,0,4.288c-1.07,4.288-1.07,12.86-1.07,25.722c0,5.359-1.43,8.216-2.857,8.216
		c-1.429,0-2.145-3.214-2.502-5.358c-0.714-6.431-3.215-13.219-6.074-16.076c-3.213-2.858-7.144-3.574-35.368-3.574
		c-9.646,0-28.58,0-34.652,0.716c-1.787,0.356-2.145,2.858-2.145,5.001c0,12.861-0.356,93.957-0.356,108.247
		c-0.358,20.365,1.072,68.95,2.142,80.025c1.43,13.218,5.001,15.362,16.792,18.935c4.287,1.071,6.073,1.785,6.073,3.572
		c0,2.143-2.5,2.501-7.144,2.501c-8.574,0-17.149-2.144-30.011-2.144c-15.718,0-26.435,2.144-32.152,2.144
		c-4.644,0-6.432-1.429-6.432-3.215c0-1.43,3.574-2.502,7.504-3.216c16.791-2.143,18.934-8.217,20.007-24.651
		c2.5-33.939,2.5-177.554,1.784-182.913c-0.355-3.215-1.427-4.286-2.5-4.644c-2.143-0.358-10.359-1.071-26.795-1.071
		c-16.076,0-25.005,0.713-33.222,1.785c-6.431,1.072-10.717,5.359-15.721,19.292c-1.428,3.573-3.571,5.716-4.643,5.716
		c-1.429,0-1.429-3.216-1.071-5.359c1.784-10.36,5.001-21.078,5.001-30.009c0-3.215,0-4.644,1.429-5.359
		c0.714-0.357,2.143,0.358,2.857,1.429c1.431,1.786,7.147,3.215,11.789,3.573c6.075,0.357,40.013,1.071,76.81,1.071
		L1314.978,374.857z"/>
	<path d="M1372.484,373.784c10.003,0,16.791,1.429,27.865,1.429c10.004,0,20.007-1.429,27.866-1.429c2.5,0,5.001,0.715,5.001,1.43
		c0,1.429-1.427,2.858-5.358,3.215c-13.933,2.501-15.361,7.146-16.076,22.15c-1.072,18.934-0.714,60.375-0.714,83.597
		c0,52.516,1.071,83.597,1.785,93.6c1.072,13.577,2.86,15.362,13.576,18.22c5.001,1.072,6.074,2.143,6.074,3.574
		c0,1.785-2.501,2.142-6.79,2.142c-3.213,0-13.574-1.072-22.148-1.072c-15.361,0-26.08,1.786-32.511,1.786
		c-3.216,0-5.358-0.714-5.358-2.5c0-1.072,2.142-2.144,8.217-3.573c13.218-2.858,15.005-8.573,15.362-30.009
		c0.714-20.364,0.357-121.823,0.357-140.757c0-17.506-1.071-25.723-1.786-31.081c-1.071-11.79-4.287-13.219-16.792-16.077
		c-2.5-0.714-3.928-1.429-3.928-2.858C1367.126,374.499,1368.912,373.784,1372.484,373.784"/>
	<path d="M1698.291,490.607c0,57.874-39.299,93.6-66.807,105.747c-14.289,6.43-30.366,10.717-46.086,10.717
		c-63.591,0-116.464-56.803-116.464-122.181c0-35.725,11.789-67.163,46.086-93.243c18.22-14.29,46.086-22.864,68.95-22.864
		C1644.345,368.783,1698.291,424.158,1698.291,490.607 M1520.736,400.937c-20.006,23.221-26.796,56.445-26.796,84.312
		c0,25.364,10.72,54.659,26.08,75.379c24.294,32.51,51.445,39.655,71.809,39.655c13.933,0,26.436-3.929,38.583-12.861
		c19.649-14.647,43.227-47.872,43.227-96.458c0-30.367-12.145-63.949-33.581-88.241c-13.933-15.72-33.582-28.58-63.234-28.58
		C1556.818,374.143,1532.882,387.003,1520.736,400.937"/>
	<path d="M1733.648,373.428c7.501,0,24.293,1.786,37.154,1.786c1.786,0,3.215,1.429,8.217,7.86
		c23.221,30.009,120.752,140.4,155.403,178.983c0.361,0.357,2.146,1.072,2.146-2.858c0-14.29-1.429-119.68-1.785-152.19
		c0-21.435-7.148-24.65-18.222-27.508c-4.286-1.072-6.789-1.786-6.789-3.216c0-1.786,3.217-2.143,7.147-2.144
		c6.431,0,15.719,1.072,23.936,1.072c10.718,0,18.577-1.072,22.507-1.071c3.572,0,5.716,0.357,5.716,1.786
		c0,1.787-3.215,2.501-6.073,3.573c-13.933,4.644-14.291,12.146-15.72,21.436c-1.429,10.717-2.143,90.741-2.143,124.323
		c0,32.867-0.715,53.587,0,72.522c0.358,7.146,0.358,10.718-2.143,10.718c-1.429,0-5.717-5.359-12.148-13.218
		c-22.507-27.509-113.248-131.47-163.265-190.059c-1.786-2.144-2.858-1.786-2.858,0.715c0,14.289-1.07,133.256-1.07,148.617
		c0,15.719,1.07,24.292,3.928,30.366c2.859,6.432,12.505,10.003,17.507,11.432c3.929,1.072,6.43,1.786,6.43,3.93
		c0,1.787-3.215,2.143-6.787,2.143c-6.074,0-15.72-1.786-27.153-1.786c-11.074,0-22.148,1.786-24.65,1.786
		c-5.357,0-6.072-1.071-6.072-2.143c0-1.787,2.857-2.501,6.787-3.572c13.934-3.93,17.148-7.503,18.935-28.223
		c1.072-12.861,3.928-134.328,3.928-156.477c0-21.078-3.215-23.579-6.429-26.08c-4.644-3.572-8.933-5.359-17.505-6.786
		c-5.001-0.716-6.788-1.43-6.788-3.217C1725.789,374.499,1727.576,373.428,1733.648,373.428"/>
	<path d="M751.068,705.581c1.428,9.289,5.001,18.219,10.002,30.723c27.509,73.595,42.513,109.32,66.451,165.051
		c9.289,22.15,12.503,25.365,21.791,27.508c3.93,0.715,6.073,2.144,6.073,3.216c0,1.786-3.215,2.501-6.431,2.501
		c-5.714,0-9.644-1.072-28.935-1.072c-9.647,0-24.651,1.429-32.154,1.429c-3.572,0-5.717-1.072-5.717-2.501
		c0-1.429,3.574-2.858,6.789-3.216c16.076-2.142,16.433-9.288,16.433-16.076c0-4.286-12.86-37.154-26.08-71.807
		c-1.071-2.144-3.213-4.287-4.285-4.287c-13.22,1.071-62.163,0.714-70.022,1.071c-1.072,0-3.931,4.645-5.003,7.145
		c-3.214,7.146-13.931,34.297-19.648,53.589c-4.287,14.648-3.929,21.077,0,25.007c2.857,2.858,7.86,4.288,14.648,5.716
		c3.571,0.715,5.358,2.143,5.358,3.215c0,1.787-3.216,2.502-6.788,2.502c-6.788,0-22.149-1.787-35.367-1.787
		c-8.932,0-15.005,1.787-22.508,1.787c-3.93,0-6.072-0.715-6.072-2.502c0-1.786,3.571-2.5,7.142-3.215
		c16.434-3.215,18.58-5.716,32.512-36.082c9.645-20.364,41.799-100.031,63.948-155.048c1.788-4.645,2.145-7.145,2.145-10.36
		c0-1.43,0.713-3.574,1.071-3.93c2.143-2.501,8.574-8.931,10.002-17.862c0.358-1.43,0.716-3.574,2.145-3.574
		C749.639,702.722,750.354,703.437,751.068,705.581 M771.431,822.403c-16.075-45.015-24.65-63.949-30.725-78.597
		c-1.071-2.5-1.784-1.427-2.856,1.073c-10.004,24.294-24.294,63.947-29.295,78.953c-0.358,0-0.716,3.215,1.071,3.215
		c5.716,0.357,15.004,0.357,28.58,0.357c12.148,0,28.94,0,33.225-1.429C771.074,825.975,771.789,823.832,771.431,822.403"/>
	<path d="M879.312,706.296c7.504,0,24.293,1.787,37.155,1.787c1.787,0,3.215,1.429,8.217,7.859
		c23.221,30.008,120.753,140.4,155.403,178.983c0.361,0.357,2.145,1.072,2.145-2.858c0-14.29-1.428-119.68-1.784-152.189
		c0-21.436-7.148-24.651-18.222-27.509c-4.286-1.072-6.789-1.786-6.789-3.216c0-1.786,3.217-2.143,7.146-2.143
		c6.432,0,15.721,1.071,23.938,1.071c10.717,0,18.577-1.071,22.506-1.071c3.572,0,5.715,0.357,5.715,1.787
		c0,1.786-3.214,2.5-6.072,3.572c-13.933,4.644-14.292,12.146-15.721,21.435c-1.428,10.717-2.142,90.742-2.142,124.324
		c0,32.867-0.716,53.588,0,72.522c0.358,7.145,0.358,10.718-2.142,10.718c-1.43,0-5.717-5.359-12.15-13.218
		c-22.505-27.509-113.246-131.47-163.263-190.059c-1.787-2.143-2.858-1.786-2.858,0.715c0,14.29-1.072,133.255-1.072,148.617
		c0,15.719,1.072,24.293,3.93,30.366c2.857,6.431,12.503,10.003,17.506,11.432c3.929,1.072,6.43,1.786,6.43,3.93
		c0,1.787-3.216,2.144-6.787,2.144c-6.075,0-15.72-1.787-27.152-1.787c-11.075,0-22.149,1.787-24.65,1.787
		c-5.358,0-6.074-1.072-6.074-2.144c0-1.787,2.857-2.501,6.787-3.573c13.934-3.929,17.149-7.502,18.937-28.222
		c1.071-12.861,3.928-134.327,3.928-156.477c0-21.078-3.216-23.579-6.431-26.08c-4.643-3.572-8.93-5.358-17.504-6.787
		c-5.001-0.715-6.788-1.429-6.788-3.215C871.453,707.367,873.24,706.296,879.312,706.296"/>
	<path d="M1150.457,707.725c15.362,0,31.081,0,45.73-1.429c9.644-1.072,21.433-2.501,28.578-2.501
		c27.151,0,53.231,4.644,77.882,19.292c29.294,18.22,54.302,48.943,54.302,96.458c0,70.021-48.588,103.603-93.244,115.035
		c-7.503,2.144-21.079,2.859-31.08,2.859c-7.86,0-16.433-0.715-26.437-1.43c-10.717-0.714-20.721-1.786-31.08-1.786
		c-9.647,0-20.365,0.715-24.293,0.715c-3.931,0-6.788-1.072-6.788-2.859c0-1.072,1.785-2.142,6.072-2.501
		c12.505-1.786,15.72-5.358,16.434-19.291c0.715-8.574,1.072-50.016,1.072-69.307c0-63.591-1.072-98.601-1.786-109.676
		c-0.714-12.147-2.144-16.077-16.434-18.935c-3.573-0.357-4.287-1.429-4.287-2.857
		C1145.098,708.439,1147.241,707.725,1150.457,707.725 M1192.97,713.441c-1.071,0.357-3.932,2.858-3.932,9.646
		c-0.355,12.503-0.713,23.221-0.713,88.956c0,39.297,1.073,59.66,2.143,77.523c1.431,20.721,3.216,27.866,12.148,34.654
		c5.001,3.93,16.076,7.859,31.438,7.859c18.576,0,32.152-3.215,42.869-8.931c22.865-11.79,54.66-37.154,54.66-97.53
		c0-33.939-10.36-63.591-32.509-84.669c-18.935-17.862-42.156-31.081-79.311-31.081
		C1208.689,709.868,1196.542,712.012,1192.97,713.441"/>
	<path d="M310.769,1039.521c8.573,0,21.077,1.429,31.437,1.429c7.858,0,13.933-0.715,21.077-0.715c5.359,0,7.144,1.072,7.144,2.502
		c0,1.786-1.785,2.859-6.071,3.572c-11.075,1.787-10.72,6.788-8.217,12.504c15.361,38.583,52.158,119.679,77.165,174.339
		c1.072,2.501,2.5,1.786,3.217,0c12.145-25.007,20.72-43.585,31.437-68.591c0.713-0.716,0.713-3.574,0.713-3.932
		c-6.787-15.361-28.935-67.878-36.795-85.025c-10.361-22.864-12.861-26.793-23.579-29.652c-6.788-1.429-7.86-2.858-7.86-4.287
		c0-1.071,2.145-2.144,6.433-2.144c10.716,0,14.288,1.429,27.151,1.429c13.574,0,17.861-1.429,27.149-1.429
		c3.216,0,6.075,0.714,6.075,2.144c0,1.786-2.859,2.858-6.431,3.572c-11.076,2.144-14.29,7.145-8.217,22.15
		c6.431,16.433,15.361,36.797,28.937,69.307c0.358,0.714,1.428,1.071,2.501-0.715c10.716-21.792,16.433-35.368,24.294-53.23
		c12.86-30.724,12.502-33.938-2.859-37.153c-6.788-1.43-7.144-2.502-7.144-3.931c0-1.071,2.142-1.786,6.429-1.786
		c9.287,0,13.933,1.071,23.223,1.071c14.647,0,18.219-1.429,27.148-1.429c3.932,0,5.717,0.358,5.717,1.786
		c0,1.43-1.785,2.502-6.787,3.573c-13.933,3.216-21.076,12.147-32.51,32.51c-10.359,20.006-31.081,61.447-34.652,68.593
		c-0.358,0.714-0.358,2.143,0.356,3.929c10.717,25.008,24.651,56.089,37.155,83.954c1.427,2.859,2.143,2.501,3.216,0.358
		c18.576-40.727,64.66-147.188,71.092-172.195c1.429-6.788,1.429-13.218-10.36-16.792c-5.717-1.428-7.86-2.143-7.86-3.572
		c0-1.43,1.071-2.144,6.074-2.144c9.289,0,13.575,1.429,25.007,1.429c9.646,0,19.291-1.429,26.08-1.429c5,0,6.074,0.714,6.074,1.786
		c0,1.43-1.787,2.502-8.575,3.93c-15.719,3.93-21.437,13.576-43.228,61.448c-22.149,47.515-57.876,133.255-68.949,158.62
		c-2.145,5.716-3.217,8.217-5.001,8.217c-2.145,0-3.574-2.501-5.36-8.217c-7.502-22.15-26.437-63.948-38.227-90.742
		c-0.713-1.072-1.785-1.429-2.5-0.358c-13.576,27.152-32.511,70.379-40.012,90.385c-2.502,5.717-3.929,8.932-5.716,8.932
		c-1.787,0-2.5-2.501-5.002-8.932l-20.721-49.3c-19.647-46.086-40.727-93.244-57.874-130.397
		c-14.648-31.796-17.863-37.87-31.794-39.656c-3.932-0.357-7.147-1.786-7.147-3.214
		C303.622,1040.95,306.123,1039.521,310.769,1039.521"/>
	<path d="M717.312,1038.45c1.429,9.288,5.003,18.219,10.005,30.723c27.507,73.595,42.512,109.319,66.449,165.051
		c9.289,22.15,12.505,25.365,21.794,27.508c3.929,0.715,6.07,2.144,6.07,3.215c0,1.786-3.214,2.501-6.43,2.501
		c-5.715,0-9.645-1.072-28.937-1.072c-9.646,0-24.65,1.43-32.152,1.43c-3.573,0-5.715-1.073-5.715-2.501
		c0-1.429,3.571-2.858,6.787-3.215c16.075-2.144,16.433-9.289,16.433-16.077c0-4.287-12.861-37.154-26.079-71.808
		c-1.072-2.143-3.215-4.286-4.288-4.286c-13.218,1.071-62.162,0.714-70.021,1.071c-1.072,0-3.93,4.644-5,7.146
		c-3.217,7.144-13.934,34.296-19.651,53.587c-4.288,14.648-3.929,21.078,0,25.007c2.86,2.859,7.86,4.288,14.647,5.717
		c3.573,0.714,5.359,2.143,5.359,3.215c0,1.786-3.216,2.501-6.789,2.501c-6.787,0-22.147-1.787-35.367-1.787
		c-8.931,0-15.004,1.787-22.506,1.787c-3.931,0-6.074-0.715-6.074-2.501c0-1.786,3.574-2.501,7.145-3.215
		c16.434-3.216,18.58-5.717,32.51-36.083c9.646-20.363,41.798-100.031,63.948-155.047c1.788-4.644,2.145-7.146,2.145-10.36
		c0-1.43,0.715-3.573,1.07-3.93c2.145-2.502,8.575-8.931,10.005-17.862c0.357-1.43,0.714-3.574,2.142-3.574
		C715.884,1035.591,716.6,1036.306,717.312,1038.45 M737.677,1155.271c-16.076-45.014-24.65-63.947-30.724-78.595
		c-1.072-2.501-1.786-1.429-2.858,1.071c-10.004,24.294-24.294,63.948-29.295,78.953c-0.356,0-0.714,3.217,1.072,3.217
		c5.715,0.356,15.005,0.356,28.578,0.356c12.15,0,28.94,0,33.227-1.43C737.321,1158.843,738.033,1156.7,737.677,1155.271"/>
	<path d="M850.202,1039.521c10.003,0,16.791,1.429,27.866,1.429c10.004,0,20.007-1.429,27.865-1.429
		c2.503,0,5.003,0.714,5.003,1.429c0,1.429-1.429,2.859-5.36,3.216c-13.931,2.501-15.362,7.145-16.076,22.149
		c-1.07,18.935-0.714,60.376-0.714,83.597c0,52.517,1.072,83.597,1.786,93.6c1.073,13.577,2.859,15.363,13.575,18.22
		c5,1.072,6.073,2.144,6.073,3.573c0,1.786-2.5,2.143-6.787,2.143c-3.214,0-13.575-1.072-22.151-1.072
		c-15.36,0-26.078,1.787-32.51,1.787c-3.213,0-5.357-0.715-5.357-2.501c0-1.072,2.144-2.144,8.217-3.572
		c13.217-2.859,15.004-8.575,15.361-30.01c0.715-20.363,0.359-121.823,0.359-140.756c0-17.507-1.073-25.723-1.789-31.082
		c-1.071-11.79-4.287-13.219-16.791-16.076c-2.5-0.715-3.929-1.429-3.929-2.859C844.843,1040.235,846.63,1039.521,850.202,1039.521"
		/>
	<path d="M1094.201,1040.594c9.645,0,16.434-0.715,22.505-3.931c1.431-1.071,2.503-1.071,2.859-0.357
		c0.357,1.073,0.357,1.786,0,4.288c-1.072,4.286-1.072,12.86-1.072,25.721c0,5.36-1.43,8.217-2.857,8.217
		c-1.43,0-2.144-3.215-2.501-5.358c-0.714-6.431-3.216-13.219-6.074-16.077c-3.215-2.858-7.145-3.573-35.369-3.573
		c-9.644,0-28.58,0-34.651,0.715c-1.787,0.357-2.146,2.858-2.146,5.002c0,12.86-0.357,93.957-0.357,108.247
		c-0.357,20.363,1.073,68.95,2.144,80.024c1.429,13.219,5.001,15.363,16.792,18.936c4.285,1.07,6.072,1.785,6.072,3.573
		c0,2.142-2.5,2.5-7.144,2.5c-8.574,0-17.148-2.144-30.009-2.144c-15.719,0-26.436,2.144-32.153,2.144
		c-4.645,0-6.431-1.429-6.431-3.216c0-1.429,3.573-2.501,7.502-3.215c16.791-2.144,18.934-8.217,20.006-24.651
		c2.501-33.939,2.501-177.554,1.786-182.913c-0.356-3.215-1.428-4.287-2.5-4.644c-2.143-0.358-10.36-1.071-26.794-1.071
		c-16.078,0-25.006,0.713-33.223,1.785c-6.433,1.072-10.72,5.359-15.722,19.291c-1.428,3.574-3.571,5.717-4.644,5.717
		c-1.428,0-1.428-3.216-1.071-5.359c1.787-10.36,5.003-21.078,5.003-30.009c0-3.215,0-4.644,1.428-5.359
		c0.714-0.356,2.143,0.357,2.856,1.429c1.43,1.786,7.147,3.215,11.791,3.573c6.073,0.357,40.013,1.071,76.81,1.071
		L1094.201,1040.594z"/>
	<path d="M1151.709,1039.521c10.004,0,16.792,1.429,27.864,1.429c10.006,0,20.008-1.429,27.867-1.429c2.5,0,5,0.714,5,1.429
		c0,1.429-1.426,2.859-5.356,3.216c-13.933,2.501-15.361,7.145-16.077,22.149c-1.07,18.935-0.714,60.376-0.714,83.597
		c0,52.517,1.071,83.597,1.786,93.6c1.072,13.577,2.858,15.363,13.574,18.22c5.003,1.072,6.077,2.144,6.077,3.573
		c0,1.786-2.502,2.143-6.79,2.143c-3.216,0-13.576-1.072-22.15-1.072c-15.361,0-26.08,1.787-32.51,1.787
		c-3.217,0-5.358-0.715-5.358-2.501c0-1.072,2.141-2.144,8.217-3.572c13.217-2.859,15.005-8.575,15.362-30.01
		c0.713-20.363,0.355-121.823,0.355-140.756c0-17.507-1.071-25.723-1.784-31.082c-1.073-11.79-4.288-13.219-16.792-16.076
		c-2.501-0.715-3.929-1.429-3.929-2.859C1146.351,1040.235,1148.137,1039.521,1151.709,1039.521"/>
	<path d="M1247.087,1039.165c7.503,0,24.294,1.785,37.154,1.785c1.786,0,3.216,1.43,8.217,7.861
		c23.221,30.009,120.752,140.4,155.405,178.983c0.359,0.357,2.144,1.071,2.144-2.858c0-14.29-1.43-119.68-1.785-152.19
		c0-21.435-7.146-24.65-18.223-27.508c-4.285-1.072-6.786-1.787-6.786-3.215c0-1.787,3.214-2.144,7.146-2.144
		c6.43,0,15.718,1.071,23.935,1.071c10.717,0,18.576-1.071,22.507-1.071c3.572,0,5.718,0.357,5.718,1.786
		c0,1.786-3.216,2.501-6.075,3.573c-13.933,4.644-14.291,12.146-15.72,21.436c-1.43,10.717-2.143,90.741-2.143,124.323
		c0,32.867-0.715,53.587,0,72.522c0.358,7.146,0.358,10.719-2.142,10.719c-1.429,0-5.717-5.36-12.149-13.219
		c-22.507-27.509-113.248-131.469-163.264-190.059c-1.786-2.144-2.859-1.786-2.859,0.715c0,14.289-1.069,133.254-1.069,148.616
		c0,15.72,1.069,24.293,3.928,30.367c2.858,6.431,12.505,10.003,17.506,11.432c3.929,1.072,6.43,1.786,6.43,3.931
		c0,1.785-3.214,2.142-6.787,2.142c-6.072,0-15.721-1.786-27.151-1.786c-11.076,0-22.15,1.786-24.651,1.786
		c-5.358,0-6.073-1.071-6.073-2.142c0-1.788,2.857-2.502,6.787-3.573c13.934-3.931,17.149-7.502,18.934-28.223
		c1.073-12.861,3.93-134.328,3.93-156.477c0-21.079-3.215-23.579-6.43-26.08c-4.644-3.572-8.931-5.359-17.506-6.788
		c-5-0.714-6.785-1.429-6.785-3.215C1239.23,1040.236,1241.015,1039.165,1247.087,1039.165"/>
	<path d="M1688.282,1041.307c8.577,2.501,20.723,7.145,24.295,8.931c2.144,1.072,3.572,4.645,3.572,8.575
		c0,2.143,2.145,15.719,2.859,20.006c1.072,4.644-0.358,6.788-1.43,6.788c-1.785,0-2.143-0.715-4.285-5.716
		c-10.719-25.722-30.725-40.012-68.594-40.012c-27.15,0-53.588,11.788-70.021,29.294c-17.15,18.577-30.724,47.515-30.724,86.812
		c0,42.156,24.294,74.666,43.227,90.028c17.149,13.576,38.941,21.078,58.233,21.078c18.578,0,35.724-7.502,44.655-16.433
		c4.646-5.36,4.646-11.076,5.36-19.649c0.714-7.146,1.43-28.938,0.357-40.013c-1.071-12.504-5.358-16.433-21.077-18.577
		c-3.573-0.358-6.074-1.429-6.074-2.858c0-1.071,1.429-2.501,8.575-2.144c5.716,0,15.005,1.073,27.506,1.073
		c12.862,0,17.864-0.715,20.722-0.715c3.215,0,5.715,0.715,5.715,2.144c0,1.785-4.287,2.858-6.786,3.572
		c-5.002,1.072-7.146,3.572-7.146,22.507c0,15.005,1.787,40.726,1.787,45.728c0,4.644,0.357,7.144-2.5,8.574l-16.792,8.574
		c-16.076,7.502-33.224,13.933-52.873,13.933c-38.942,0-67.878-13.218-90.745-33.582c-25.005-21.078-38.224-50.373-38.224-85.383
		c0-36.797,14.291-67.878,47.871-93.6c16.433-12.146,37.87-25.722,82.884-25.722
		C1666.135,1034.52,1680.066,1039.521,1688.282,1041.307"/>
	<path fill="#FBB040" d="M1537.245,1437.299c0.031,1.163-0.119,2.805-0.462,4.941c-1.914,12.36-5.2,25.374-9.927,39
		c-4.737,13.621-10.709,27.063-17.891,40.219c-7.195,13.157-15.384,25.546-24.518,37.105c-9.143,11.558-18.738,21.036-28.658,28.433
		c-10.727,6.976-18.64,12.308-23.66,16.177c-5.034,3.872-9.339,7.651-12.928,11.354c-3.593,3.721-7.468,8-11.638,12.863
		c-4.172,4.864-10.927,11.578-20.319,19.979c-25.986,21.662-52.521,42.303-79.531,61.91c10.604-12.076,18.549-25.199,23.754-39.16
		c5.207-13.963,8.176-27.84,8.941-41.502c0.759-13.666-0.306-26.742-3.133-39.192c-2.839-12.441-6.888-23.242-12.044-32.439
		c-5.163-9.189-11.029-16.435-17.507-21.814c-6.49-5.37-12.92-7.84-19.259-7.506c-4.277-0.162-8.549-0.34-12.82-0.534
		c20.427-13.93,32.942-25.426,37.781-33.561c16.642-31.273,29.72-55.713,40.553-72.915c10.804-17.196,20.482-28.729,29.521-34.388
		c1.275-0.777,2.552-1.554,3.829-2.336c-15.913,18.377-24.452,43.5-26.927,76.676c-0.35,5.661-0.483,10.779-0.378,15.345
		c0.098,4.587,0.888,8.576,2.398,11.984c1.509,3.412,4.032,5.975,7.598,7.689c3.563,1.711,8.525,2.749,14.899,3.048
		c-3.329,2.244-6.442,4.295-9.363,6.163c-2.717,1.967-5.336,4.103-7.86,6.418c-2.535,2.317-4.447,4.776-5.766,7.406
		c-2.399,4.288-2.552,8.067-0.419,11.358c2.128,3.302,4.876,6.104,8.278,8.393c3.762,3.061,8.585,5.549,14.487,7.431
		c6.23,3.197,13.322,4.014,21.266,2.342c7.937-1.664,16.057-5.617,24.287-11.877c8.22-6.265,16.451-14.895,24.544-25.948
		c8.085-11.039,15.574-24.424,22.256-40.099c4.053-9.498,6.08-19.147,6.104-28.844c0.012-9.687-1.267-19.697-3.86-29.963
		c-2.639-7.004-6.782-13.168-12.394-18.488c-5.62-5.325-11.336-9.554-17.144-12.769c-6.692-4.063-14.077-7.565-22.14-10.531
		c6.741-0.635,11.996-1.852,15.763-3.624c3.765-1.775,6.791-4.349,9.073-7.735c2.273-3.375,2.405-8.049,0.371-13.956
		c-4.984-10.54-9.752-21.252-14.303-32.136c-4.562-10.872-8.301-21.97-11.253-33.305c-2.951-11.337-4.682-22.785-5.201-34.415
		c-0.523-11.625,0.768-23.515,3.857-35.787c1.826-7.266,3.277-12.824,4.424-16.647c1.137-3.814,1.748-7.176,1.832-10.037
		c0.076-2.867-0.423-5.976-1.528-9.343c-1.109-3.357-2.926-8.185-5.514-14.442c-1.655-4.145-3.07-10.007-4.308-17.561
		c-1.238-7.553-2.406-15.511-3.489-23.88c-1.099-8.363-1.989-16.65-2.678-24.867c-0.688-8.208-1.102-15.067-1.172-20.607
		c0.225,0.036,0.449,0.068,0.672,0.103c2.546,7.296,4.857,13.572,6.975,18.798c2.112,5.227,4.12,9.547,6.063,12.924
		c1.931,3.388,3.842,6.193,5.745,8.41c1.898,2.231,4.017,3.797,6.389,4.695c9.951,4.654,18.846,7.518,26.722,8.484
		c7.865,0.977,14.844,0.557,20.921-1.282c6.073-1.839,11.322-4.841,15.715-9.02c4.386-4.174,8.033-8.762,10.899-13.757
		c6.941-11.755,11.28-26.806,12.731-44.952c6.706,9.788,13.008,19.418,18.935,28.863c5.013,7.806,9.954,16.188,14.794,25.155
		c4.836,8.973,8.624,16.597,11.438,22.782c4.452,11.159,7.924,22.119,10.42,32.858c2.489,10.737,4.27,20.509,5.39,29.243
		c1.351,9.856,2.101,19.383,2.279,28.542c-2.527-4.079-5.073-8.139-7.634-12.18c-0.544-0.646-1.377-1.108-2.474-1.359
		c-1.109-0.249-2.483,0.233-4.154,1.444c-1.671,1.216-3.681,3.665-6.048,7.345c-2.376,3.684-4.998,9.148-7.934,16.36
		c-1.991,4.281-4.505,8.294-7.553,12.012c-3.053,3.723-6.245,6.996-9.553,9.816c-3.67,3.27-7.537,5.917-11.611,7.969
		c2.451-3.009,4.999-6.814,7.598-11.4c2.125-3.65,4.381-8.334,6.759-14.05c2.363-5.716,4.558-12.274,6.546-19.672
		c1.292-5.455,0.84-13.978-1.495-25.416c-2.349-11.433-7.751-25.272-16.39-41.215c-4.084-7.406-9.281-11.657-15.5-12.827
		c-6.221-1.169-12.274-0.807-18.146,1.05c-6.862,2.166-14.005,5.729-21.442,10.61c-3.487,1.266-6.626,3.691-9.447,7.259
		c-2.826,3.575-3.875,6.886-3.156,9.979c0.319,4.97,1.404,8.402,3.301,10.299c1.896,1.896,3.278,2.954,4.164,3.153
		c-2.843,2.33-5.653,7.371-8.517,15.091c-2.872,7.726-4.032,17.308-3.622,28.858c0.414,11.564,3.235,25.064,8.303,40.724
		c5.068,15.674,14.215,33.028,27.295,52.448c2.325,3.895,5.156,8.25,8.479,13.042c3.318,4.804,6.689,9.786,10.101,14.957
		c3.409,5.172,6.647,10.471,9.709,15.87c3.057,5.41,5.394,10.608,7.022,15.582c2.762,9.244,5.672,16.547,8.798,21.879
		c3.13,5.327,6.039,9.355,8.79,12.057c2.735,2.697,5.059,4.414,6.969,5.114c1.914,0.705,3.073,1.132,3.503,1.29
		c-0.427-0.156-1.728-0.06-3.895,0.272c-2.182,0.344-4.641,1.132-7.395,2.373c-2.758,1.236-5.434,3.066-8.039,5.482
		C1539.884,1429.801,1538.137,1433.105,1537.245,1437.299"/>
	<path fill-rule="evenodd" clip-rule="evenodd" fill="#FFFFFF" d="M1116.315,1265.119c4.008,3.898,2.629,1.924,3.855,9.639h-1.927
		C1114.8,1269.734,1115.164,1271.652,1116.315,1265.119"/>
	<path fill="#FBB040" d="M817.553,1387.299c2.498,3.634,4.909,6.362,7.218,8.188c2.303,1.828,4.461,3.209,6.461,4.137
		c2.149,0.844,4.1,1.162,5.837,0.958c-1.292,1.634-2.014,3.443-2.147,5.443c-0.137,2.007,0.162,4.708,0.907,8.119
		c0.744,3.412,2.503,7.509,5.293,12.262c17.402,27.226,36.042,53.754,55.893,79.489c-4.819,7.4-7.344,15.102-7.491,23.102
		c-0.146,8.003,1.33,16.052,4.434,24.082c3.116,8.039,7.663,16.079,13.671,24.061c6.015,7.995,12.678,15.451,19.961,22.341
		c7.279,6.893,14.924,13.328,22.896,19.276c7.971,5.951,15.578,11.009,22.769,15.22c-6.945-1.201-15.821-3.953-26.558-8.416
		c-10.746-4.467-22.26-9.951-34.483-16.562c-12.222-6.606-24.693-13.961-37.372-22.108c-12.668-8.138-24.607-16.436-35.81-24.812
		c-3.367,14.155-2.899,27.445,1.389,39.66c4.282,12.215,10.837,23.557,19.586,33.834c8.756,10.287,18.734,19.537,29.831,27.65
		c11.099,8.116,21.859,15.34,32.224,21.731c-7.205-1.465-16.308-4.574-27.247-9.498c-10.937-4.918-22.748-10.852-35.388-17.907
		c-12.637-7.048-25.508-14.904-38.553-23.605c-13.046-8.695-25.461-17.551-37.248-26.506c-11.79-8.941-22.319-17.41-31.661-25.26
		c-9.335-7.845-16.728-14.58-22.251-20.049c-11.252-16.21-22.106-32.657-32.56-49.325c-3.369-4.375-6.378-7.734-9.06-10.076
		c-2.676-2.332-4.842-3.865-6.525-4.592c-1.678-0.719-3.495-0.983-5.453-0.812c0.706-1.913,1.156-3.914,1.352-6.011
		c0.051-1.998-0.174-4.456-0.658-7.368c-0.481-2.912-1.662-6.498-3.529-10.791c-18.131-31.222-34.893-63.156-50.252-95.707
		c-5.176-11.05-10.558-19.803-16.306-26.27c-5.745-6.465-11.202-11.26-16.45-14.355c-5.24-3.089-10.021-4.921-14.36-5.464
		c-4.337-0.527-7.571-0.373-9.7,0.497c7.378-4.418,13.448-11.295,18.349-20.543c4.219-7.596,7.361-18.443,9.69-32.435
		c2.339-13.984,2.019-31.968-0.388-54.078c34.713,105.917,83.708,207.165,146.006,300.771c4.931,5.182,10.092,10.426,15.49,15.739
		c4.541,4.396,9.65,9.136,15.343,14.194c5.685,5.051,11.234,9.419,16.615,13.104c5.48,4.127,9.759,7.06,12.799,8.863
		c3.048,1.812,5.348,3.141,6.904,3.997c1.556,0.868,2.804,1.46,3.72,1.777c-0.384-2.804-0.845-6.953-1.345-12.441
		c-0.5-5.48-0.863-10.897-1.089-16.254c-0.274-6.309-0.457-13.14-0.503-20.469c-19.749-20.114-37.714-42.303-53.56-66.268
		c-6.803-10.327-13.494-21.432-20.006-33.314c-6.506-11.866-12.4-24.195-17.633-36.916c-5.232-12.717-9.686-25.893-13.333-39.473
		c-3.643-13.573-5.972-27.014-7.014-40.234c3.965,10.636,9.261,24.111,16.222,40.329c6.964,16.213,16.212,33.992,27.992,53.031
		c11.782,19.037,26.21,38.717,43.424,58.588c17.212,19.879,37.761,38.665,61.46,55.76c5.252,3.814,9.376,6.623,12.345,8.476
		c2.973,1.861,5.211,3.176,6.707,3.957c1.501,0.788,2.584,1.171,3.239,1.146c-0.915-6.096-1.913-11.34-3.026-15.76
		c-0.531-2.466-1.234-5.026-2.115-7.694c-46.664-62.672-86.45-129.65-118.978-199.753c-4.276-7.547-6.623-12.27-7.154-14.1
		c-0.521-1.822-0.853-3.108-0.997-3.876c-0.147-0.335,0.232-1.538,1.169-3.595c0.94-2.045,1.95-7.312,3.178-15.722
		c1.23-8.403,2.397-20.955,3.915-37.459c1.536-16.504,3.142-39.34,6.043-68.037c0.052,0.739,0.285,3.75,0.759,9.045
		c0.475,5.302,1.181,12.146,2.203,20.53c1.021,8.397,2.325,17.686,3.971,27.86c1.656,10.183,3.685,20.481,6.117,30.862
		c2.429,10.389,5.128,20.324,8.048,29.794c2.921,9.474,6.093,17.681,9.416,24.586c-0.081,0.039-0.162,0.077-0.242,0.116
		C791.594,1340.155,804.13,1363.952,817.553,1387.299"/>
	<path fill="#FBB040" d="M342.573,732.304c-4.783,14.748-6.465,31.391-4.969,48.668c1.486,17.299,4.28,32.896,8.181,47.014
		c4.437,16.398,10.473,32.003,17.951,47.035c-3.343-6.09-6.663-12.278-9.946-18.555c-2.779-5.361-6.022-11.416-9.738-18.196
		c-3.72-6.782-7.375-13.425-10.979-19.893c-1.549-2.74-3.187-4.787-4.909-6.064c-1.728-1.288-4.269-3.042-7.633-5.174
		c-3.37-2.125-7.901-5.158-13.633-8.881c-5.732-3.717-13.263-9.131-22.65-15.858c-10.071-8.531-18.588-15.067-25.458-19.932
		c-6.882-4.878-13.979-10.334-21.288-16.478c-7.31-6.148-15.693-13.994-25.129-23.607c-9.44-9.634-21.669-23.034-36.646-40.371
		c-5.769-6.675-10.874-13.041-15.325-19.133c-4.451-6.11-8.137-11.587-11.05-16.446c-3.416-5.927-6.383-11.407-8.912-16.392
		c16.45,20.547,32.903,37.746,49.14,52.609c6.938,6.212,14.133,12.116,21.553,17.834c7.42,5.706,14.82,10.71,22.184,15.17
		c7.36,4.442,14.503,7.911,21.424,10.525c6.912,2.601,13.221,3.658,18.945,3.141c0.867-0.5,2.395-1.016,4.575-1.465
		c2.175-0.458,3.69-0.862,4.563-1.293c-5.911-4.821-11.901-9.642-17.961-14.498c-6.066-4.853-12.549-10.612-19.44-17.31
		c-6.899-6.702-14.614-14.932-23.143-24.739c-8.535-9.813-18.218-22.093-29.018-37.061c-3.049-4.225-6.003-8.427-8.862-12.646
		c-2.865-4.208-5.359-8.036-7.482-11.482c-2.682-4.211-4.898-8.044-6.643-11.501c-4.241-6.93-9.713-12.985-16.464-17.883
		c-6.769-4.89-13.398-8.722-19.91-11.462c-6.508-2.741-12.24-4.453-17.157-5.24c-4.924-0.798-7.915-1.187-8.961-1.383
		c-23.108-28.102-40.788-52.508-52.826-74.085c-12.041-21.541-19.75-42.541-22.983-63.061c-0.32-2.535-0.636-5.079-0.95-7.628
		c11.482,35.498,29.566,51.113,53.03,53.53c7.768,0.083,13.443-4.419,17.202-13.867c3.755-9.468,6.132-26.824,7.653-53.015
		c-3.056-31.841-3.489-65.754-1.019-101.56c2.462-35.784,7.255-70.271,14.196-102.557c1.876-9.09,2.769-17.673,2.672-25.75
		c-0.108-8.079-0.531-15.217-1.308-21.345c-0.779-6.142-2.338-13.038-4.682-20.71c3.043,4.515,5.711,7.435,8.007,8.766
		c2.287,1.319,4.779,1.51,7.48,0.566c2.688-0.939,5.14-4.379,7.371-10.375c-0.093,0.25-0.187,0.499-0.281,0.749
		c0.466-1.25,0.931-2.5,1.399-3.75c17.545-47.005,38.164-78.733,59.598-91.958c21.461-13.298,42.018-11.322,60.773,5.862
		c18.789,17.146,35.122,47.971,49.315,90.798c14.217,42.811,25.062,93.382,33.905,148.883c0.565,4.015,2.312,15.208,5.28,33.516
		c2.966,18.276,6.165,41.02,9.758,67.861c3.598,26.843,7.094,56.723,10.797,89.117c3.699,32.378,6.799,64.786,9.609,96.648
		c-0.538,5.864-1.038,11.679-1.503,17.446c0.262-4.804-0.15-11.315-1.231-19.519c-0.854-6.625-2.353-14.991-4.525-25.081
		c-2.178-10.106-5.497-21.976-10.08-35.354c-2.517-6.224-5.124-11.958-7.833-17.198c-2.717-5.249-5.199-9.924-7.437-14.037
		c-2.244-4.129-4.2-7.541-5.854-10.282c-1.659-2.74-2.642-4.302-2.935-4.703c-7.269-11.65-13.854-24.168-19.596-38.031
		c-5.751-13.878-10.663-27.462-14.625-41.072c-3.969-13.598-7.034-26.603-9.115-39.091c-2.088-12.507-3.341-23.111-3.769-31.82
		c2.238,9.988,4.792,19.253,7.633,27.902c2.469,7.32,5.336,15.074,8.588,23.336c3.244,8.248,6.877,15.379,10.859,21.507
		c4.738,6.557,8.782,9.931,12.195,9.967c3.407,0.018,6.302-2.458,8.749-7.6c0.819-1.72,0.929-7.967,0.414-18.9
		c-0.513-10.938-1.747-24.273-3.686-40.038c-1.944-15.77-4.814-33.535-8.672-53.14c-3.864-19.621-8.93-38.593-15.426-56.464
		c-6.49-17.863-14.628-33.903-24.642-47.388c-10.012-13.481-22.186-21.747-36.596-23.789c-12.23,0.572-23.336,5.404-33.032,13.754
		c-9.693,8.335-19.446,24.79-28.667,48.712c-1.881,4.875-3.61,9.417-5.204,13.627c-1.597,4.221-3.006,9.119-4.209,14.697
		c-1.539,6.455-2.126,13.323-1.769,20.559c0.359,7.22,1.055,14.139,2.076,20.755c1.466,7.72,3.308,15.031,5.499,21.959
		c0.067,0.972-1.265-0.908-4.031-5.628c-2.768-4.718-5.539-5.571-8.296-2.511c-1.384,1.524-3.72,5.194-6.987,11.051
		c-3.271,5.863-5.622,15.813-6.894,29.567c-3.274,25.971-4.872,50.522-4.964,73.59c-0.095,23.067,2.432,46.23,7.485,69.266
		c5.046,23.063,13.227,46.909,24.413,71.74c11.177,24.855,26.449,52.306,45.562,83.138c8.493,13.706,17.319,26.161,26.403,37.731
		c3.482,4.061,7.792,8.917,12.92,14.692c5.118,5.766,9.855,9.493,14.189,11.284c4.334,1.774,7.673-0.05,10.13-5.644
		c2.46-5.624,2.796-18.505,1.584-39.929c-1.219-13.879-3.314-27.957-6.376-42.155c-3.567-17.638-7.93-34.609-13.279-50.539
		c-5.359-15.931-11.128-30.933-17.436-44.677c-6.313-13.762-12.851-25.971-19.676-36.384c-6.833-10.421-13.294-19.189-19.354-26.306
		c-6.069-7.119-11.392-12.436-15.93-16.043c-4.546-3.611-7.693-5.83-9.4-6.824c5.316-3.829,12.638-4.201,21.785-0.531
		c7.821,2.656,17.748,9.084,29.536,20.06c11.776,10.982,26.492,29.462,43.63,56.783c-3.801,7.69-0.788,24.075,8.939,49.032
		c14.776,38.09,27.922,70.696,39.317,98.159c11.395,27.448,20.915,50.07,28.573,67.831c9.032,21.035,16.715,38.726,23.082,53.018
		c-5.011-7.518-10.039-14.677-15.043-21.498c-5.013-6.825-9.8-12.187-14.314-16.128c-4.524-3.949-8.605-6.053-12.206-6.445
		C347.149,724.008,344.377,726.733,342.573,732.304"/>
</g>
</svg>
