<?xml version="1.0" encoding="utf-8"?>
<!-- Generator: Adobe Illustrator 17.0.0, SVG Export Plug-In . SVG Version: 6.00 Build 0)  -->
<!DOCTYPE svg PUBLIC "-//W3C//DTD SVG 1.1//EN" "http://www.w3.org/Graphics/SVG/1.1/DTD/svg11.dtd">
<svg version="1.1" id="Capa_1" xmlns="http://www.w3.org/2000/svg" xmlns:xlink="http://www.w3.org/1999/xlink" x="0px" y="0px"
	 width="1080px" height="1079.968px" viewBox="420 0.015 1080 1079.968" enable-background="new 420 0.015 1080 1079.968"
	 xml:space="preserve">
<g>
	<g>
		<path fill="#fff" d="M979.7,0.246c-12.284-1.147-26.662,1.822-43.603,12.082c0,0-281.471,245.562-293.754,257.644H487.498
			C450.24,270.038,420,300.279,420,337.538v413.565c0,37.393,30.24,67.498,67.498,67.498h154.91
			c12.284,12.218,293.755,249.07,293.755,249.07c16.941,10.192,31.319,13.229,43.603,12.082
			c24.976-2.362,42.524-23.287,47.857-45.36c0.202-2.16,0.202-986.564-0.136-988.724C1022.225,23.534,1004.608,2.608,979.7,0.246z"
			/>
	</g>
</g>
</svg>
