<?xml version="1.0" encoding="utf-8"?>
<!-- Generator: Adobe Illustrator 17.0.0, SVG Export Plug-In . SVG Version: 6.00 Build 0)  -->
<!DOCTYPE svg PUBLIC "-//W3C//DTD SVG 1.1//EN" "http://www.w3.org/Graphics/SVG/1.1/DTD/svg11.dtd">
<svg version="1.1" id="Capa_1" xmlns="http://www.w3.org/2000/svg" xmlns:xlink="http://www.w3.org/1999/xlink" x="0px" y="0px"
	 width="1100px" height="1099.968px" viewBox="-10 -9.986 1100 1099.968" enable-background="new -10 -9.986 1100 1099.968"
	 xml:space="preserve">
<g>
	<path fill="#FFFFFF" d="M559.7,0.246c-12.284-1.147-26.662,1.822-43.603,12.082c0,0-281.471,245.562-293.754,257.644H67.498
		C30.24,270.038,0,300.279,0,337.538v413.565c0,37.393,30.24,67.498,67.498,67.498h154.91
		c24.759,24.626,25.769,23.565,293.755,249.07c16.941,10.192,31.319,13.229,43.603,12.082c24.976-2.362,42.524-23.287,47.857-45.36
		c0.202-2.16,0.202-986.564-0.136-988.724C602.225,23.534,584.608,2.608,559.7,0.246z"/>
	<path d="M554.831,1089.982c-13.923,0-28.667-4.624-43.823-13.742l-0.678-0.407l-0.605-0.51
		c-88.313-74.313-148.52-124.766-188.359-158.15c-77.457-64.907-88.033-73.771-103.07-88.571H67.498
		C24.766,828.601-10,793.836-10,751.103V337.538c0-42.694,34.757-77.49,77.48-77.566h150.942
		c32.585-29.63,280.105-245.586,291.101-255.179l0.653-0.57l0.741-0.448C528.125-6.647,544.855-11.182,560.63-9.71
		c31.079,2.947,50.812,28.775,56.586,53.066l0.151,0.767c0.167,1.069,0.356,2.28,0.391,495.907
		c0.013,184.13,0.006,493.323-0.178,495.294l-0.067,0.717l-0.169,0.7c-5.859,24.253-25.645,50.036-56.637,52.967
		C558.762,1089.89,556.789,1089.982,554.831,1089.982z M521.983,1059.5c11.751,6.956,22.799,10.482,32.849,10.482
		c1.34,0,2.687-0.062,4.004-0.186c15.023-1.421,32.721-13.317,38.802-36.697c0.277-38.122,0.156-951.426-0.13-986.134
		c-5.985-23.416-23.681-35.334-38.752-36.764c-11.128-1.037-23.543,2.387-36.752,10.245
		c-97.458,85.026-283.122,247.285-292.647,256.655l-2.918,2.871H67.498C35.801,280.028,10,305.853,10,337.538v413.565
		c0,31.704,25.793,57.498,57.498,57.498h159.037l2.926,2.91c16.296,16.209,22.976,21.807,104.75,90.332
		C373.964,935.156,433.989,985.455,521.983,1059.5z"/>
</g>
<g>
	<path fill="#FFFFFF" d="M951.397,540.034l116.504-116.504c16.132-16.064,16.132-42.187,0-58.251
		c-16.064-16.064-42.187-16.064-58.251,0l-116.504,116.57l-116.57-116.57c-15.996-16.064-42.187-16.064-58.185,0
		c-16.064,16.064-16.064,42.187,0,58.251l116.504,116.504l-116.504,116.57c-16.064,15.996-16.064,42.187,0,58.183
		c15.996,16.064,42.187,16.064,58.183,0l116.57-116.504l116.504,116.504c16.064,16.064,42.187,16.064,58.251,0
		c16.064-15.996,16.064-42.187,0-58.183L951.397,540.034z"/>
	<path d="M1038.773,736.836c-13.684,0-26.538-5.319-36.196-14.978L893.142,612.422L783.644,721.86
		c-9.61,9.65-22.458,14.976-36.161,14.976s-26.551-5.325-36.178-14.993c-9.638-9.597-14.962-22.444-14.962-36.147
		c0-13.702,5.324-26.55,14.991-36.177l109.421-109.482L711.319,430.601c-19.958-19.959-19.958-52.435,0-72.393
		c9.613-9.653,22.462-14.977,36.165-14.977s26.551,5.324,36.178,14.992l109.482,109.482l109.433-109.496
		c9.66-9.66,22.515-14.979,36.198-14.979s26.539,5.319,36.197,14.977c9.686,9.645,15.027,22.505,15.027,36.197
		c0,13.691-5.342,26.552-15.042,36.211l-109.421,109.42l109.436,109.499c9.65,9.61,14.975,22.458,14.975,36.16
		c0,13.703-5.324,26.551-14.991,36.178C1065.312,731.516,1052.457,736.836,1038.773,736.836z M893.146,584.142l123.574,123.573
		c5.88,5.881,13.713,9.12,22.054,9.12c8.342,0,16.174-3.239,22.055-9.12c5.886-5.86,9.119-13.676,9.119-22.021
		c0-8.344-3.233-16.159-9.104-22.005L937.258,540.032l123.572-123.573c5.919-5.894,9.17-13.721,9.17-22.054
		s-3.251-16.161-9.154-22.04c-5.896-5.896-13.729-9.134-22.07-9.134c-8.341,0-16.174,3.238-22.054,9.119L893.148,495.993
		L769.505,372.35c-5.86-5.886-13.676-9.119-22.021-9.119c-8.346,0-16.161,3.233-22.008,9.104
		c-12.176,12.175-12.176,31.962-0.015,44.124l123.574,123.573L725.464,663.673c-5.888,5.862-9.121,13.678-9.121,22.021
		c0,8.345,3.233,16.16,9.104,22.006c5.876,5.901,13.69,9.135,22.035,9.135s16.159-3.233,22.006-9.104L893.146,584.142z"/>
</g>
</svg>
