<?xml version="1.0" encoding="utf-8"?>
<!-- Generator: Adobe Illustrator 17.0.0, SVG Export Plug-In . SVG Version: 6.00 Build 0)  -->
<!DOCTYPE svg PUBLIC "-//W3C//DTD SVG 1.1//EN" "http://www.w3.org/Graphics/SVG/1.1/DTD/svg11.dtd">
<svg version="1.1" id="Capa_1" xmlns="http://www.w3.org/2000/svg" xmlns:xlink="http://www.w3.org/1999/xlink" x="0px" y="0px"
	 width="1079.996px" height="887.204px" viewBox="420 96.396 1079.996 887.204"
	 enable-background="new 420 96.396 1079.996 887.204" xml:space="preserve">
<g>
	<path d="M1021.047,411.37V127.837c0-17.354-14.067-31.441-31.421-31.441c-17.374,0-31.441,14.09-31.441,31.441v2.924
		c-5.446,1.757-11.123,4.47-16.991,8.156L726.247,274.519c-23.539,14.852-56.275,35.509-86.806,54.769H525.937
		C467.522,329.288,420,376.813,420,435.228v209.504c0,58.431,47.522,105.934,105.937,105.934H639.46
		c30.488,19.24,63.225,39.94,86.763,54.749l214.947,135.644c5.848,3.686,11.548,6.376,16.991,8.156v2.944
		c0,17.331,14.067,31.441,31.441,31.441c17.354,0,31.421-14.11,31.421-31.441V668.627c37.734-30.297,62.186-76.464,62.186-128.629
		C1083.214,487.814,1058.785,441.69,1021.047,411.37z M599.946,708.313h-74.008c-35.044,0-63.564-28.52-63.564-63.564V435.245
		c0-35.044,28.52-63.564,63.564-63.564h73.989V708.31h0.02V708.313z M958.165,901.696h-0.02v-0.016L748.852,769.609l-77.948-49.154
		l-27.712-17.502V377.047l13.688-8.644l91.952-58.013L958.146,178.33v723.35l0.02,0.012V901.696z"/>
	<path fill="#FFFFFF" d="M599.926,371.68h-73.989c-35.044,0-63.564,28.52-63.564,63.564v209.504
		c0,35.044,28.52,63.564,63.564,63.564h74.008v-0.003h-0.02V371.68z"/>
	<polygon points="958.146,901.696 958.165,901.696 958.165,901.693 958.146,901.68 	"/>
	<polygon fill="#FFFFFF" points="748.833,310.391 656.88,368.403 643.192,377.047 643.192,702.953 670.905,720.455 748.852,769.609 
		958.146,901.68 958.146,178.33 	"/>
</g>
<path fill="#FFFFFF" stroke="#000000" stroke-width="25" stroke-miterlimit="10" d="M1484.993,616.189
	c20.001,20.021,20.001,52.438,0,72.462c-19.982,19.982-52.438,19.982-72.419,0l-76.191-76.234l-76.191,76.234
	c-20.021,19.982-52.438,19.982-72.419,0c-19.982-20.021-19.982-52.438,0-72.462l76.191-76.191l-76.191-76.211
	c-20.021-19.982-20.021-52.418,0-72.419c19.981-19.981,52.418-19.981,72.396,0l76.211,76.191l76.191-76.191
	c20.001-19.981,52.438-19.981,72.439,0c19.982,19.982,19.982,52.438,0,72.419l-76.211,76.211L1484.993,616.189z"/>
</svg>
